<svg xmlns="http://www.w3.org/2000/svg" xml:space="preserve" overflow="hidden" viewBox="0 0 48 48">
  <path fill="#4F81BD" d="M24.84 1.52C12.02 1.34 1.74 11.86 1.76 24.5c0 12.69 10.13 22.8 22.35 22.98 12.87.2 22.98-10.26 23.1-22.64A22.89 22.89 0 0 0 24.85 1.52Zm-.34 7.94a2.6 2.6 0 0 1-.03 5.17 2.57 2.57 0 0 1-2.53-2.61 2.55 2.55 0 0 1 2.56-2.56Zm11.46 8.28-4.64.55-1.78.2c-.97.14-1.6.68-1.57 1.78.03 1.33 0 2.64.03 3.97.02 1.51.26 2.98.57 4.46.32 1.39.58 2.8.86 4.18l.87 4.13c.15.68-.19 1.3-.81 1.46-.66.18-1.23-.2-1.44-.86l-1.67-5.72-.94-3.21c-.13-.42-.44-.66-.86-.66s-.73.27-.84.68a540.54 540.54 0 0 0-2.58 8.93c-.18.66-.79 1.02-1.41.84-.63-.16-.97-.76-.81-1.44.02-.1.05-.2.05-.31.05-.13.08-.26.1-.42l.4-1.96c.26-1.25.52-2.48.75-3.7.06-.13.08-.27.1-.42l.5-2.46c.27-1.28.37-2.55.4-3.83.02-1.23 0-2.43 0-3.66 0-1.04-.53-1.64-1.57-1.78l-6.55-.78c-.5-.05-.87-.52-.84-1.04a1 1 0 0 1 1.02-.97h22.2c.22 0 .43-.03.64.03a1 1 0 0 1 .75 1.04 1.1 1.1 0 0 1-.94.97Z"/>
</svg>

