<svg xmlns="http://www.w3.org/2000/svg" viewBox="0 0 63.05 72.01">
  <g data-name="Group 1674">
    <g data-name="Group 1673">
      <path fill="#23d96c" fill-rule="evenodd" d="M46.88 5.66q-.81-.5-1.67-.92a25.28 25.28 0 0 0-2.36-1.04c-.53-.2-1.07-.42-1.61-.58a30.2 30.2 0 1 0-15.17 58.35v8.65c18.08-2.73 34.1-17.08 35.29-35.92.71-11.34-4.94-22.91-14.48-28.54Z" data-name="Path 1632"/>
      <path fill="#173647" d="M24.45 72.01v-9.23A31.82 31.82 0 0 1 31.84 0a31.53 31.53 0 0 1 9.9 1.58c.43.12.88.3 1.3.46l.38.14.64.26c.54.2 1.14.48 1.87.84q.92.46 1.79.98c9.9 5.85 16.03 17.92 15.26 30.04-1.18 18.66-16.6 34.4-36.67 37.43Zm7.43-68.75h-.04a28.57 28.57 0 0 0-5.45 56.61l1.31.26v8.06c17.64-3.46 30.98-17.53 32.03-34.1.7-10.93-4.8-21.8-13.67-27.03h-.02a26.21 26.21 0 0 0-3.21-1.61l-.54-.22-.4-.15c-.4-.15-.76-.29-1.11-.4a28.42 28.42 0 0 0-8.9-1.42Z" data-name="Path 1633"/>
    </g>
    <path fill="#173647" fill-rule="evenodd" d="M25.8 16.5a2.8 2.8 0 0 1 2.46.95 6.45 6.45 0 0 1 1.12 1.71c1 2.2 1.6 5.36.36 7.13a9.8 9.8 0 0 1-6.16-4.78 5.01 5.01 0 0 1-.54-2.07 3.03 3.03 0 0 1 2.77-2.93Z" data-name="Path 1634"/>
    <path fill="#173647" fill-rule="evenodd" d="M18.55 24.02a3.08 3.08 0 0 1 .5 0 5.67 5.67 0 0 1 2.23.5c2.22.95 4.7 3.28 5.18 5.34-1.9 1.27-5.34 1.17-7.56.22a11.97 11.97 0 0 1-1.9-1.14 2.73 2.73 0 0 1 1.54-4.92Z" data-name="Path 1635"/>
    <path fill="#173647" fill-rule="evenodd" d="M21.27 39.9a5.12 5.12 0 0 1-2.23.5 2.81 2.81 0 0 1-2.18-4.91 5.43 5.43 0 0 1 1.88-1.15 6.84 6.84 0 0 1 2.58-.54c1.45-.03 3.93-.35 5.13.45-.31 2.06-2.95 4.7-5.18 5.65Z" data-name="Path 1636"/>
    <path fill="#173647" fill-rule="evenodd" d="M30.43 45a11.49 11.49 0 0 1-1.09 1.9c-1.59 2.06-5.27.6-5.1-2.1a4.77 4.77 0 0 1 .5-2.03c.94-2.22 3.53-4.95 5.76-5.42 1.26 1.9.89 5.6-.07 7.66Z" data-name="Path 1637"/>
    <path fill="#173647" fill-rule="evenodd" d="M34.32 19.11a11.5 11.5 0 0 1 1.1-1.89 2.84 2.84 0 0 1 2.48-.99 2.97 2.97 0 0 1 2.77 3.03 5.01 5.01 0 0 1-.5 2.08 9.2 9.2 0 0 1-5.72 4.9c-1.42-1.74-1.08-4.9-.13-7.13Z" data-name="Path 1638"/>
    <path fill="#173647" fill-rule="evenodd" d="M35.71 46.9a6.42 6.42 0 0 1-1.09-1.74c-.95-2.23-.92-5.55.35-7.3 2.22.48 4.55 2.84 5.5 5.06a5 5 0 0 1 .5 2.09c.16 2.38-3.51 3.79-5.26 1.88Z" data-name="Path 1639"/>
    <path fill="#173647" fill-rule="evenodd" d="M45.44 40.24a5.67 5.67 0 0 1-2.24-.5c-2.22-.95-4.65-3.17-5.13-5.24 1.22-.8 3.47-.88 4.94-.86a6.86 6.86 0 0 1 2.58.55 11.55 11.55 0 0 1 1.88 1.09c2.22 1.6.82 5.12-2.03 4.96Z" data-name="Path 1640"/>
  </g>
</svg>
