<svg width="44" height="43" xmlns="http://www.w3.org/2000/svg" xmlns:xlink="http://www.w3.org/1999/xlink" xml:space="preserve" overflow="hidden"><g transform="translate(-850 -317)"><g><g><g><g><path d="M30.9304 26.4967C26.4705 29.1165 21.0446 30.9172 16.0256 31.6155 15.7316 32.634 15.0964 33.5003 14.2301 34.0672 15.5741 36.9364 17.5088 39.5456 19.845 41.9081 26.439 42.2231 33.0776 39.4459 37.4378 33.8389 37.5139 33.7391 37.5821 33.6289 37.6556 33.5265 37.0151 31.1272 35.9546 28.8435 34.65 26.586 34.4137 26.6543 34.188 26.7067 33.9649 26.7487 33.5895 26.8537 33.201 26.9273 32.7941 26.9273 32.1247 26.9273 31.5 26.7645 30.9304 26.4967L30.9304 26.4967Z" fill="#4F81BD" fill-rule="evenodd" fill-opacity="1" transform="matrix(1.02381 0 0 1 851 318)"/><path d="M23.7589 14.4165C22.0736 13.1906 20.3044 12.0934 18.4984 11.1195 17.8369 12.705 16.2724 13.8154 14.4427 13.8154 14.1146 13.8154 13.7996 13.7734 13.4925 13.7051 12.4241 17.7345 11.8545 22.0054 12.1511 26.0269 14.1566 26.1791 15.7789 27.6465 16.1411 29.5811 20.5905 28.8487 25.2499 27.2738 29.1795 25.0189 28.6912 24.3075 28.3999 23.4517 28.3999 22.5278 28.3999 21.4436 28.8094 20.4645 29.4578 19.698 27.741 17.766 25.8116 15.9101 23.7589 14.4165L23.7589 14.4165Z" fill="#4F81BD" fill-rule="evenodd" fill-opacity="1" transform="matrix(1.02381 0 0 1 851 318)"/><path d="M10.5 26.2211C10.1404 21.9319 10.773 17.3171 11.9201 13.0121 10.7914 12.2141 10.0485 10.9069 10.0485 9.4185 10.0485 8.90137 10.1509 8.40525 10.3215 7.94325 8.5995 7.623 6.87225 7.4235 5.13975 7.29488 4.90613 7.56787 4.65413 7.83038 4.43363 8.11912-0.105 13.9571-1.06313 21.4331 1.20487 27.93 3.22875 28.7936 5.31563 29.3659 7.497 29.6782 7.76738 28.0376 8.946 26.7173 10.5 26.2211L10.5 26.2211Z" fill="#4F81BD" fill-rule="evenodd" fill-opacity="1" transform="matrix(1.02381 0 0 1 851 318)"/><path d="M36.561 25.4336C36.4849 25.5308 36.393 25.6095 36.309 25.6961 37.4456 27.6281 38.4064 29.5864 39.0731 31.6496 42.0053 26.6884 42.672 20.8898 41.2571 15.5794 41.0209 15.9285 40.7951 16.2803 40.5457 16.6189 39.4012 18.1965 38.2489 19.8135 36.9915 21.2704 37.1096 21.6694 37.191 22.0867 37.191 22.5278L37.191 22.5383C37.4115 23.52 37.2251 24.5831 36.561 25.4336Z" fill="#4F81BD" fill-rule="evenodd" fill-opacity="1" transform="matrix(1.02381 0 0 1 851 318)"/><path d="M18.8055 9.04838C20.9029 10.1351 22.9635 11.4056 24.9218 12.8284 27.1267 14.4323 29.1926 16.4325 31.0222 18.5089 31.5656 18.2674 32.1615 18.1283 32.7968 18.1283 34.1093 18.1283 35.2774 18.7189 36.0833 19.6298 37.1437 18.3382 38.1386 16.947 39.1309 15.5873 39.6401 14.8837 40.1074 14.1619 40.5589 13.4347 39.2306 9.99337 37.0046 6.8565 33.8861 4.42838 29.8305 1.27313 24.9769-0.149625 20.2151 0.0315 19.9132 0.41475 19.614 0.79275 19.3253 1.18387 18.2726 2.63287 17.3854 4.01888 16.5952 5.481 16.6976 5.55713 16.7633 5.65425 16.8577 5.7435 17.9524 6.468 18.6874 7.67025 18.8055 9.04838L18.8055 9.04838Z" fill="#4F81BD" fill-rule="evenodd" fill-opacity="1" transform="matrix(1.02381 0 0 1 851 318)"/><path d="M7.55737 31.4081C5.691 31.1509 3.87713 30.7624 2.12363 30.1297 3.486 32.9516 5.47837 35.5189 8.12175 37.5742 10.92 39.7504 14.0989 41.0996 17.3644 41.6719 15.4691 39.5272 13.9204 37.1936 12.7627 34.6894 12.4609 34.7524 12.1485 34.7944 11.8256 34.7944 9.74662 34.7917 8.01675 33.3454 7.55737 31.4081L7.55737 31.4081Z" fill="#4F81BD" fill-rule="evenodd" fill-opacity="1" transform="matrix(1.02381 0 0 1 851 318)"/><path d="M11.8492 5.88525C12.6656 4.9875 13.8521 4.60162 14.9966 4.79325 15.8156 3.255 16.7396 1.79288 17.8342 0.273 13.7445 0.89775 9.849 2.73 6.68587 5.68575 8.23462 5.859 9.77287 6.05325 11.3085 6.34725 11.4739 6.17925 11.6576 6.02962 11.8492 5.88525L11.8492 5.88525Z" fill="#4F81BD" fill-rule="evenodd" fill-opacity="1" transform="matrix(1.02381 0 0 1 851 318)"/></g></g></g></g></g></svg>