<svg width="50" height="50" xmlns="http://www.w3.org/2000/svg" xmlns:xlink="http://www.w3.org/1999/xlink" xml:space="preserve" overflow="hidden"><g transform="translate(-850 -202)"><g><g><g><g><path d="M879.583 219.333 860.528 219.333C859.776 219.333 859.167 218.724 859.167 217.972L859.167 212.528C859.167 211.776 859.776 211.167 860.528 211.167L879.583 211.167C880.335 211.167 880.944 211.776 880.944 212.528L880.944 217.972C880.944 218.724 880.335 219.333 879.583 219.333ZM861.889 216.611 878.222 216.611 878.222 213.807 861.889 213.807Z" fill="#4F81BD" fill-rule="nonzero" fill-opacity="1"/><path d="M879.583 222.164 860.528 222.164C859.776 222.164 859.167 222.774 859.167 223.526L859.167 228.861C859.167 229.613 859.776 230.222 860.528 230.222L875.99 230.222 880.944 225.186 880.944 223.526C880.944 222.774 880.335 222.164 879.583 222.164ZM878.222 227.5 861.889 227.5 861.889 224.778 878.222 224.778Z" fill="#4F81BD" fill-rule="nonzero" fill-opacity="1"/><path d="M866.054 245.889 866.054 245.807 866.489 243.915 856.444 243.915 856.444 208.444 883.667 208.444 883.667 222.396 886.389 219.823 886.389 207.083C886.389 206.332 885.78 205.722 885.028 205.722L855.083 205.722C854.332 205.722 853.722 206.332 853.722 207.083L853.722 245.194C853.722 245.946 854.332 246.556 855.083 246.556L865.972 246.556C865.983 246.332 866.011 246.109 866.054 245.889Z" fill="#4F81BD" fill-rule="nonzero" fill-opacity="1"/><path d="M880.944 229.092 879.883 230.168C880.421 230.057 880.84 229.632 880.944 229.092Z" fill="#4F81BD" fill-rule="nonzero" fill-opacity="1"/><path d="M859.167 239.668C859.167 240.42 859.776 241.029 860.528 241.029L867.116 241.029 867.524 239.26 867.701 238.511 867.701 238.443 861.889 238.443 861.889 235.667 870.518 235.667 873.241 232.944 860.528 232.944C859.776 232.944 859.167 233.554 859.167 234.306Z" fill="#4F81BD" fill-rule="nonzero" fill-opacity="1"/><path d="M896.584 225.69 891.997 221.103C891.142 220.246 889.755 220.244 888.898 221.099 888.896 221.1 888.895 221.101 888.893 221.103L870.232 239.872 868.694 246.419C868.453 247.605 869.218 248.763 870.404 249.004 870.406 249.005 870.408 249.005 870.409 249.006 870.55 249.02 870.691 249.02 870.831 249.006 870.998 249.033 871.168 249.033 871.335 249.006L877.936 247.549 896.584 228.861C897.437 228.013 897.441 226.634 896.594 225.781 896.59 225.778 896.587 225.775 896.584 225.771ZM876.548 245.072 871.566 246.174 872.778 241.234 886.77 227.092 890.608 230.93ZM892.146 229.392 888.308 225.554 890.472 223.417 894.338 227.282Z" fill="#4F81BD" fill-rule="nonzero" fill-opacity="1"/></g></g></g></g></g></svg>