<svg width="52" height="52" xmlns="http://www.w3.org/2000/svg" xmlns:xlink="http://www.w3.org/1999/xlink" xml:space="preserve" overflow="hidden"><g transform="translate(-205 -201)"><g><g><g><g><path d="M253.579 215.324C251.299 211.417 248.206 208.324 244.299 206.044 240.392 203.764 236.126 202.624 231.5 202.624 226.873 202.624 222.606 203.764 218.7 206.044 214.793 208.324 211.7 211.417 209.42 215.324 207.14 219.231 206 223.497 206 228.123 206 233.679 207.621 238.676 210.864 243.114 214.107 247.552 218.296 250.623 223.431 252.327 224.029 252.438 224.471 252.36 224.759 252.095 225.047 251.83 225.191 251.497 225.191 251.099 225.191 251.033 225.185 250.436 225.174 249.306 225.162 248.177 225.157 247.192 225.157 246.352L224.393 246.484C223.906 246.573 223.292 246.611 222.551 246.6 221.809 246.59 221.04 246.512 220.243 246.368 219.446 246.225 218.705 245.893 218.018 245.372 217.333 244.852 216.846 244.171 216.558 243.331L216.226 242.567C216.005 242.058 215.656 241.493 215.18 240.874 214.704 240.254 214.223 239.833 213.736 239.612L213.503 239.446C213.349 239.335 213.205 239.202 213.072 239.047 212.939 238.892 212.84 238.737 212.773 238.582 212.707 238.427 212.762 238.3 212.939 238.2 213.117 238.1 213.437 238.051 213.902 238.051L214.566 238.15C215.009 238.239 215.556 238.504 216.209 238.947 216.862 239.39 217.399 239.965 217.82 240.673 218.329 241.581 218.943 242.273 219.662 242.749 220.382 243.225 221.107 243.462 221.837 243.462 222.567 243.462 223.198 243.407 223.73 243.297 224.26 243.186 224.758 243.02 225.224 242.798 225.423 241.315 225.965 240.175 226.85 239.378 225.589 239.246 224.454 239.046 223.447 238.781 222.44 238.515 221.4 238.083 220.326 237.485 219.252 236.888 218.361 236.146 217.653 235.261 216.945 234.375 216.364 233.213 215.91 231.775 215.457 230.336 215.23 228.676 215.23 226.794 215.23 224.115 216.104 221.836 217.853 219.954 217.034 217.94 217.111 215.683 218.085 213.181 218.727 212.982 219.679 213.132 220.941 213.629 222.203 214.127 223.126 214.554 223.713 214.908 224.3 215.262 224.77 215.561 225.124 215.804 227.183 215.229 229.308 214.941 231.499 214.941 233.691 214.941 235.816 215.229 237.875 215.804L239.137 215.008C239.999 214.476 241.018 213.989 242.191 213.547 243.364 213.104 244.261 212.982 244.881 213.182 245.877 215.683 245.965 217.941 245.146 219.955 246.895 221.836 247.769 224.116 247.769 226.795 247.769 228.676 247.542 230.341 247.089 231.791 246.635 233.241 246.049 234.403 245.33 235.277 244.61 236.152 243.713 236.888 242.64 237.485 241.566 238.083 240.525 238.515 239.519 238.78 238.511 239.046 237.377 239.246 236.115 239.379 237.266 240.375 237.841 241.946 237.841 244.093L237.841 251.098C237.841 251.496 237.98 251.829 238.257 252.094 238.534 252.359 238.97 252.437 239.568 252.326 244.704 250.622 248.893 247.551 252.136 243.113 255.378 238.675 257 233.678 257 228.122 256.999 223.497 255.858 219.231 253.579 215.324Z" fill="#4F81BD" fill-rule="nonzero" fill-opacity="1"/></g></g></g></g></g></svg>