<svg width="46" height="47" xmlns="http://www.w3.org/2000/svg" xmlns:xlink="http://www.w3.org/1999/xlink" xml:space="preserve" overflow="hidden"><g transform="translate(-516 -426)"><g><g><g><g><path d="M561.178 432.75 516.822 432.75C516.367 432.75 516 433.117 516 433.572L516 439.322 516 466.428C516 466.883 516.367 467.25 516.822 467.25L522.572 467.25 543.107 467.25 548.857 467.25 561.178 467.25C561.633 467.25 562 466.883 562 466.428L562 439.322 562 433.572C562 433.117 561.632 432.75 561.178 432.75ZM521.75 465.607 517.643 465.607 517.643 440.143 521.75 440.143 521.75 465.607ZM542.286 465.607 523.393 465.607 523.393 440.143 542.286 440.143 542.286 465.607ZM548.036 465.607 543.928 465.607 543.928 440.143 548.036 440.143 548.036 465.607ZM560.357 465.607 549.678 465.607 549.678 440.143 560.357 440.143 560.357 465.607ZM560.357 438.5 548.857 438.5 543.107 438.5 522.571 438.5 517.643 438.5 517.643 434.393 560.357 434.393 560.357 438.5Z" fill="#558ED5" fill-rule="nonzero" fill-opacity="1"/><path d="M525.857 451.643 539.821 451.643C540.275 451.643 540.643 451.275 540.643 450.821L540.643 442.607C540.643 442.153 540.275 441.786 539.821 441.786L525.857 441.786C525.403 441.786 525.036 442.153 525.036 442.607L525.036 450.822C525.036 451.275 525.403 451.643 525.857 451.643ZM526.678 443.428 539 443.428 539 450 526.678 450 526.678 443.428Z" fill="#558ED5" fill-rule="nonzero" fill-opacity="1"/><path d="M525.857 464.786 539.821 464.786C540.275 464.786 540.643 464.418 540.643 463.964L540.643 455.75C540.643 455.296 540.275 454.928 539.821 454.928L525.857 454.928C525.403 454.928 525.036 455.296 525.036 455.75L525.036 463.964C525.036 464.419 525.403 464.786 525.857 464.786ZM526.678 456.572 539 456.572 539 463.143 526.678 463.143 526.678 456.572Z" fill="#558ED5" fill-rule="nonzero" fill-opacity="1"/><path d="M525.857 452.464 539.821 452.464 539.821 454.107 525.857 454.107Z" fill="#558ED5" fill-rule="nonzero" fill-opacity="1"/></g></g></g></g></g></svg>