<svg width="56" height="57" xmlns="http://www.w3.org/2000/svg" xmlns:xlink="http://www.w3.org/1999/xlink" xml:space="preserve" overflow="hidden"><g transform="translate(-845 -421)"><g><g><g><g><path d="M37.3145 22.2689 34.5646 19.5189C34.2061 19.1605 33.6268 19.1605 33.2684 19.5189L23.8333 28.954 20.8148 25.9355C20.4564 25.5771 19.8771 25.5771 19.5187 25.9355L16.7688 28.6855C16.4103 29.0438 16.4103 29.6233 16.7688 29.9816L23.1853 36.3981C23.364 36.5778 23.5987 36.6667 23.8333 36.6667 24.068 36.6667 24.3027 36.5769 24.4814 36.3981L37.3145 23.565C37.673 23.2066 37.673 22.6273 37.3145 22.2689ZM23.8333 34.4539 18.713 29.3335 20.1668 27.8797 23.1853 30.8982C23.5437 31.2567 24.123 31.2567 24.4814 30.8982L33.9165 21.4631 35.3703 22.9169 23.8333 34.4539Z" fill="#4F81BD" fill-rule="nonzero" fill-opacity="1" transform="matrix(1 0 0 1.01818 846 422)"/><path d="M54.7868 32.4135 50.693 27.5002 54.7868 22.5869C55.015 22.3138 55.0636 21.9334 54.9133 21.6117 54.7621 21.29 54.4385 21.0837 54.0828 21.0837L42.0444 21.0837 41.2405 15.4546C41.1764 15.0027 40.7895 14.6672 40.333 14.6672L33.3316 14.6672C32.2518 13.767 28.0865 10.2966 28.0865 10.2966 27.7464 10.0125 27.2533 10.0125 26.9132 10.2966L21.6681 14.6672 14.6667 14.6672C14.2101 14.6672 13.8243 15.0027 13.7592 15.4537L12.9553 21.0838 0.91715 21.0838C0.561483 21.0838 0.237935 21.2901 0.0866878 21.6118-0.0645593 21.9345-0.0150388 22.3148 0.213228 22.587L4.307 27.5003 0.213228 32.4136C-0.0150388 32.6868-0.0635925 33.0671 0.0866878 33.3889 0.237935 33.7115 0.561483 33.9168 0.91715 33.9168L12.9555 33.9168C13.2002 35.6264 13.7603 39.5469 13.7603 39.5469 13.8244 39.9988 14.2112 40.3334 14.6668 40.3334L21.6682 40.3334 26.9133 44.704C27.0837 44.8461 27.2918 44.9167 27.4999 44.9167 27.708 44.9167 27.917 44.8461 28.0865 44.704L33.3306 40.3334C34.7551 40.3334 40.3347 40.3371 40.3329 40.3334 40.7894 40.3334 41.1753 39.998 41.2404 39.5469 41.2404 39.5469 41.8005 35.6264 42.0452 33.9168L54.0826 33.9168C54.4383 33.9168 54.7618 33.7106 54.9131 33.3889 55.0646 33.0661 55.015 32.6857 54.7868 32.4135ZM2.87423 32.0835 6.20446 28.0869C6.48772 27.7469 6.48772 27.2528 6.20446 26.9136L2.87423 22.9169 11.7932 22.9169 8.46296 26.9135C8.17969 27.2536 8.17969 27.7476 8.46296 28.0868L11.7932 32.0834 2.87423 32.0834ZM40.5467 32.4125C40.5018 32.4666 40.4623 32.5262 40.4312 32.5894 40.3671 32.7178 40.3643 32.7233 39.5393 38.5 32.7845 38.5 32.7781 38.5037 32.5902 38.5972 32.5269 38.6293 32.4674 38.6678 32.4133 38.7127L27.5 42.8065 22.5867 38.7127C22.4227 38.5752 22.2145 38.5 22.0001 38.5L15.4617 38.5C14.6367 32.7233 14.6339 32.7178 14.5698 32.5894 14.5377 32.5262 14.4992 32.4667 14.4543 32.4125L10.3605 27.5002 14.4543 22.5869C14.5634 22.4559 14.634 22.2982 14.6578 22.1295L15.4617 16.5004 22.0001 16.5004C22.2146 16.5004 22.4217 16.4252 22.5867 16.2877L27.5 12.194C32.4939 16.3555 32.4976 16.3573 32.5902 16.4042 32.7176 16.4675 32.8579 16.5004 32.9999 16.5004L39.5383 16.5004 40.3422 22.1305C40.3661 22.2992 40.4367 22.4569 40.5457 22.5879L44.6395 27.5002 40.5467 32.4125ZM43.2067 32.0835 46.5369 28.0869C46.8202 27.7469 46.8202 27.2528 46.5369 26.9136L43.2067 22.917 52.1257 22.917 48.7954 26.9136C48.5122 27.2537 48.5122 27.7477 48.7954 28.0869L52.1257 32.0835 43.2067 32.0835Z" fill="#4F81BD" fill-rule="nonzero" fill-opacity="1" transform="matrix(1 0 0 1.01818 846 422)"/></g></g></g></g></g></svg>