<svg width="47" height="48" xmlns="http://www.w3.org/2000/svg" xmlns:xlink="http://www.w3.org/1999/xlink" xml:space="preserve" overflow="hidden"><g transform="translate(-518 -536)"><g><g><g><g><path d="M542.696 537 546.389 537 552.764 583 543.707 583 543.667 581.167 540.333 581.167 540.293 583 531.236 583 537.611 537 541.304 537 541.264 538.833 542.736 538.833 542.696 537ZM540.547 571.443 540.409 577.729 543.591 577.729 543.453 571.443 540.547 571.443ZM540.761 561.719 540.622 568.005 543.377 568.005 543.239 561.719 540.761 561.719ZM540.974 551.995 540.836 558.281 543.164 558.281 543.025 551.995 540.974 551.995ZM541.188 542.271 541.05 548.557 542.95 548.557 542.812 542.271 541.188 542.271Z" fill="#4F81BD" fill-rule="nonzero" fill-opacity="1"/></g></g></g></g></g></svg>