<svg width="52" height="50" xmlns="http://www.w3.org/2000/svg" xmlns:xlink="http://www.w3.org/1999/xlink" xml:space="preserve" overflow="hidden"><defs><clipPath id="clip0"><rect x="208" y="532" width="52" height="50"/></clipPath><clipPath id="clip1"><rect x="208" y="532" width="52" height="50"/></clipPath><clipPath id="clip2"><rect x="208" y="532" width="51" height="50"/></clipPath><clipPath id="clip3"><rect x="208" y="532" width="51" height="50"/></clipPath><clipPath id="clip4"><rect x="208" y="532" width="51" height="50"/></clipPath></defs><g clip-path="url(#clip0)" transform="translate(-208 -532)"><g clip-path="url(#clip1)"><g clip-path="url(#clip2)"><g clip-path="url(#clip3)"><g clip-path="url(#clip4)"><path d="M21.2886 15.4743C16.0354 15.4743 11.7618 19.7479 11.7618 25.0007 11.7618 30.2539 16.0354 34.5275 21.2886 34.5275 26.5415 34.5275 30.8151 30.2539 30.8151 25.0007 30.8151 19.7479 26.5415 15.4743 21.2886 15.4743ZM26.9447 23.2067 20.1198 30.0315C19.8334 30.318 19.4576 30.4615 19.0822 30.4615 18.7069 30.4615 18.3315 30.3184 18.045 30.0315L15.4369 27.4234C14.8639 26.8508 14.8639 25.9219 15.4369 25.349 16.0095 24.776 16.9383 24.776 17.5113 25.349L19.0822 26.9199 24.8703 21.1323C25.4428 20.5592 26.3717 20.5592 26.9447 21.1323 27.5176 21.7048 27.5176 22.6337 26.9447 23.2067Z" fill="#558ED5" fill-rule="nonzero" fill-opacity="1" transform="matrix(1.02 0 0 1 211.785 532)"/><path d="M42.528 13.5662 42.5266 13.5273C42.5048 13.047 42.4903 12.5388 42.4816 11.9735 42.4407 9.21667 40.2491 6.93625 37.4919 6.78214 31.7432 6.46133 27.296 4.58679 23.4962 0.883101L23.4638 0.852201C22.2244-0.284195 20.3548-0.284195 19.115 0.852201L19.0826 0.883101C15.2828 4.58679 10.8356 6.46133 5.08688 6.78252 2.33001 6.93625 0.138092 9.21667 0.0972746 11.9739 0.0888822 12.5354 0.0740049 13.0435 0.0522612 13.5273L0.0499725 13.6176C-0.0617979 19.4797-0.200653 26.7753 2.23999 33.3972 3.58199 37.0387 5.61446 40.2041 8.28055 42.8062 11.3171 45.7694 15.2942 48.122 20.1015 49.7981 20.2579 49.8526 20.4204 49.8969 20.586 49.9301 20.8194 49.9767 21.0545 49.9999 21.2894 49.9999 21.5244 49.9999 21.7597 49.9767 21.9928 49.9301 22.1584 49.8969 22.322 49.8522 22.4793 49.7974 27.2807 48.1181 31.2537 45.7645 34.2875 42.8016 36.9526 40.1988 38.985 37.0326 40.3281 33.3904 42.7779 26.7486 42.6395 19.4393 42.528 13.5662ZM21.2886 37.4614C14.4176 37.4614 8.82795 31.8717 8.82795 25.0007 8.82795 18.1297 14.4176 12.54 21.2886 12.54 28.1593 12.54 33.7493 18.1297 33.7493 25.0007 33.7493 31.8717 28.1593 37.4614 21.2886 37.4614Z" fill="#558ED5" fill-rule="nonzero" fill-opacity="1" transform="matrix(1.02 0 0 1 211.785 532)"/></g></g></g></g></g></svg>