<svg width="40" height="41" xmlns="http://www.w3.org/2000/svg" xmlns:xlink="http://www.w3.org/1999/xlink" xml:space="preserve" overflow="hidden"><g transform="translate(-516 -317)"><g><g><g><g><path d="M31.98 1.56C28.9692 1.56 26.52 4.0092 26.52 7.02 26.52 8.45972 27.0841 9.76677 27.9977 10.7433L21.4698 18.72 12.4175 18.72C12.037 16.0785 9.76529 14.04 7.02 14.04 4.0092 14.04 1.56 16.4892 1.56 19.5 1.56 22.5108 4.0092 24.96 7.02 24.96 9.76529 24.96 12.037 22.9215 12.4175 20.28L21.4516 20.28 27.7159 28.5782C26.9689 29.5123 26.52 30.6936 26.52 31.98 26.52 34.9908 28.9692 37.44 31.98 37.44 34.9908 37.44 37.44 34.9908 37.44 31.98 37.44 28.9692 34.9908 26.52 31.98 26.52 30.8201 26.52 29.7468 26.8866 28.8616 27.5057L22.8318 19.5198 29.2134 11.7183C30.0261 12.1987 30.9694 12.48 31.98 12.48 34.9908 12.48 37.44 10.0308 37.44 7.02 37.44 4.0092 34.9908 1.56 31.98 1.56Z" fill="#4F81BD" fill-rule="nonzero" fill-opacity="1" transform="matrix(1 0 0 1.02564 516 318)"/></g></g></g></g></g></svg>