<svg width="685" height="529" viewBox="0 0 685 529" fill="none" xmlns="http://www.w3.org/2000/svg">
<g clip-path="url(#clip0_14_1424)">
<g style="mix-blend-mode:multiply" opacity="0.4">
<path d="M554.21 435.043L456.738 489.506C454.549 490.725 453.673 493.228 454.788 495.085C455.902 496.942 458.617 497.413 460.807 496.185L562.012 439.642L554.21 435.043Z" fill="#A8C4E5"/>
</g>
<g style="mix-blend-mode:multiply" opacity="0.4">
<path d="M509.53 417.659L501.569 413.195L411.732 463.322C409.543 464.542 408.667 467.045 409.782 468.902C410.896 470.759 413.611 471.229 415.801 470.002L509.53 417.659Z" fill="#A8C4E5"/>
</g>
<g style="mix-blend-mode:multiply" opacity="0.4">
<path d="M367.578 311.252L459.238 258.247C460.022 257.793 460.912 257.554 461.818 257.554C462.723 257.554 463.613 257.793 464.397 258.247L682.428 384.294C683.21 384.748 683.859 385.4 684.31 386.184C684.761 386.968 684.999 387.857 684.999 388.762C684.999 389.666 684.761 390.555 684.31 391.339C683.859 392.123 683.21 392.775 682.428 393.229L577.202 454.069L367.578 311.252Z" fill="#A8C4E5"/>
</g>
<path d="M244.567 14.0441L267.503 1.12378L285.6 27.2035C285.6 27.2035 268.435 48.222 267.503 48.9393C266.572 49.6567 244.567 14.0441 244.567 14.0441Z" fill="#D7E8F7"/>
<path d="M601.771 429.678L605.179 212.289C605.314 202.572 599.892 191.438 593.062 187.428L276.572 1.4426C269.749 -2.54269 264.104 2.06431 263.969 11.8044L260.888 230.661C260.744 240.377 266.174 251.512 272.997 255.521L564.217 426.65L556.415 444.878L574.018 454.985L595.617 443.029C599.311 440.59 601.7 434.533 601.771 429.678Z" fill="#D7E8F7"/>
<path d="M566.056 454.244L249.558 268.258C242.736 264.273 237.314 253.114 237.449 243.398L240.53 24.5414C240.666 14.8252 246.31 10.1943 253.141 14.1796L569.631 200.189C576.454 204.175 583.603 215.971 583.46 225.695L578.683 443.914C578.524 453.622 572.879 458.253 566.056 454.244Z" fill="white"/>
<g style="mix-blend-mode:multiply" opacity="0.4">
<path d="M563.381 282.757L238.906 92.0842L240.602 22.1582L565.316 209.666L563.381 282.757Z" fill="#A8C4E5"/>
</g>
<path d="M551.646 274.674L208.279 72.8991L211.328 15.2239L553.438 216.266L551.646 274.674Z" fill="#00008F"/>
<path d="M239.503 58.0019C239.32 64.0118 234.997 66.4269 229.854 63.406C224.711 60.3852 220.69 53.0602 220.873 47.0265C221.057 40.9927 225.38 38.6015 230.523 41.6224C235.666 44.6432 239.686 51.9921 239.503 58.0019Z" fill="#DCF1FF"/>
<path d="M262.322 80.8391C266.114 78.7718 266.366 71.906 262.884 65.5039C259.401 59.1018 253.504 55.5877 249.712 57.655C245.92 59.7223 245.669 66.5881 249.151 72.9903C252.633 79.3924 258.53 82.9064 262.322 80.8391Z" fill="#EBD265"/>
<path d="M291.157 91.2313C290.974 97.2411 286.659 99.6642 281.516 96.6353C276.372 93.6065 272.344 86.2736 272.527 80.2877C272.71 74.3018 277.057 71.8548 282.176 74.9235C287.296 77.9922 291.34 85.2215 291.157 91.2313Z" fill="#2C4482"/>
<path d="M512.715 212.942C514.897 222.101 509.268 227.56 500.184 225.105C491.1 222.651 481.952 213.197 479.771 204.047C477.589 194.897 483.226 189.429 492.31 191.884C501.394 194.339 510.558 203.776 512.715 212.942ZM508.559 211.818C506.967 204.972 500.08 197.91 493.289 196.077C486.498 194.243 482.295 198.316 483.919 205.163C485.543 212.01 492.413 219.072 499.181 220.905C505.948 222.738 510.199 218.665 508.575 211.818H508.559Z" fill="white"/>
<path d="M519.18 239.97C518.873 240.2 518.524 240.366 518.152 240.459C517.781 240.553 517.395 240.572 517.016 240.516C516.637 240.46 516.273 240.329 515.945 240.131C515.617 239.934 515.331 239.673 515.103 239.365L505.629 226.014C505.19 225.372 505.02 224.582 505.157 223.815C505.294 223.049 505.727 222.367 506.362 221.917C506.669 221.688 507.019 221.523 507.391 221.43C507.762 221.337 508.149 221.318 508.527 221.375C508.906 221.432 509.27 221.564 509.598 221.762C509.926 221.96 510.211 222.222 510.438 222.531L519.88 235.874C520.323 236.512 520.498 237.299 520.367 238.066C520.236 238.832 519.81 239.516 519.18 239.97Z" fill="white"/>
<path d="M329.929 283.139L268.347 248.18C265.211 246.395 262.774 241.724 262.942 237.739L266.819 132.615C266.962 128.629 269.621 126.836 272.758 128.629L334.379 163.58C337.516 165.358 339.952 170.037 339.793 174.022L335.916 279.146C335.725 283.131 333.066 284.925 329.929 283.139Z" fill="#00008F"/>
<path d="M326.474 186.95L278.649 159.778C276.372 158.487 274.613 155.092 274.716 152.19C274.828 149.297 276.755 147.998 279.04 149.289L326.888 176.461C329.173 177.752 330.932 181.148 330.821 184.049C330.685 186.942 328.751 188.241 326.474 186.95Z" fill="#4367C7"/>
<path d="M329.929 207.506L275.401 176.549L275.704 168.251L330.231 199.209L329.929 207.506Z" fill="white"/>
<path d="M329.22 226.532L274.693 195.574L275.003 187.269L329.531 218.227L329.22 226.532Z" fill="white"/>
<path d="M328.52 245.55L273.992 214.592L274.303 206.295L328.83 237.252L328.52 245.55Z" fill="white"/>
<path d="M299.803 247.614L273.331 232.582L273.634 224.276L300.113 239.309L299.803 247.614Z" fill="white"/>
<path d="M526.026 414.024L360.907 314.153C357.794 312.272 355.437 307.234 355.652 302.914L361.225 188.935C361.432 184.615 364.139 182.638 367.252 184.519L532.372 284.399C535.493 286.28 537.841 291.309 537.626 295.637L532.013 409.617C531.822 413.937 529.147 415.913 526.026 414.024Z" fill="#00008F"/>
<path d="M521.902 308.462L374.887 219.558C372.626 218.187 370.906 214.537 371.073 211.396C371.225 208.256 373.183 206.813 375.452 208.208L522.46 297.104C524.729 298.475 526.44 302.133 526.281 305.274C526.13 308.414 524.163 309.849 521.902 308.462Z" fill="#FF5C97"/>
<path d="M519.88 327.591L462.558 292.919C460.767 291.835 459.374 288.934 459.533 286.455C459.66 283.968 461.213 282.836 463.004 283.92L520.326 318.592C522.118 319.676 523.511 322.578 523.344 325.057C523.216 327.535 521.664 328.675 519.88 327.591Z" fill="#4367C7"/>
<path d="M432.671 274.85L375.349 240.178C373.557 239.094 372.204 236.192 372.331 233.714C372.451 231.227 374.003 230.095 375.795 231.179L433.117 265.851C434.908 266.935 436.301 269.836 436.142 272.307C436.015 274.794 434.462 275.934 432.671 274.85Z" fill="#4367C7"/>
<path d="M522.102 350.18L458.291 311.586L458.737 302.58L522.547 341.181L522.102 350.18Z" fill="white"/>
<path d="M434.9 297.438L371.089 258.837L371.535 249.838L435.346 288.44L434.9 297.438Z" fill="white"/>
<path d="M521.083 370.8L457.272 332.206L457.718 323.208L521.528 361.801L521.083 370.8Z" fill="white"/>
<path d="M433.889 318.058L370.078 279.465L370.516 270.466L434.327 309.06L433.889 318.058Z" fill="white"/>
<path d="M395.427 314.878L369.115 298.969L369.561 289.962L395.865 305.879L395.427 314.878Z" fill="white"/>
<path d="M482.621 367.62L456.316 351.71L456.754 342.704L483.067 358.621L482.621 367.62Z" fill="white"/>
<g style="mix-blend-mode:multiply">
<path d="M427.424 309.004L345.836 261.818C343.519 260.479 340.478 262.344 340.406 265.158L338.814 323.726C338.764 324.862 339.022 325.99 339.562 326.991C340.102 327.992 340.903 328.827 341.879 329.409L350.637 334.446L418.77 373.948V373.892L423.874 376.85C425.967 378.061 428.706 376.371 428.778 373.837L430.37 314.567C430.424 313.46 430.179 312.359 429.661 311.38C429.142 310.401 428.37 309.58 427.424 309.004Z" fill="#A8C4E5"/>
</g>
<path d="M410.371 383.903L328.368 336.463C327.391 335.88 326.59 335.043 326.051 334.041C325.511 333.039 325.253 331.909 325.303 330.772L326.896 272.212C326.975 269.398 330.009 267.533 332.325 268.872L413.914 316.058C414.872 316.628 415.657 317.449 416.186 318.432C416.715 319.414 416.967 320.522 416.915 321.637L415.323 380.907C415.204 383.425 412.465 385.115 410.371 383.903Z" fill="white"/>
<path d="M337.031 341.532L348.973 328.508C351.783 325.431 356.552 326.117 358.057 329.735L368.056 354.022L381.041 335.833C383.764 332.023 389.337 332.597 390.738 336.837L405.284 380.994L337.031 341.532Z" fill="#9FD9B4"/>
<path d="M358.455 302.922C358.335 307.051 355.819 308.996 352.834 307.266C349.848 305.537 347.508 300.786 347.619 296.657C347.731 292.529 350.254 290.576 353.24 292.305C356.225 294.035 358.566 298.785 358.455 302.922Z" fill="#FFD22D"/>
<g style="mix-blend-mode:multiply" opacity="0.4">
<path d="M78.5641 355.592C78.6062 347.8 67.7155 341.425 54.2389 341.352C40.7624 341.279 29.8034 347.536 29.7613 355.327C29.7192 363.119 40.6099 369.494 54.0865 369.567C67.563 369.64 78.522 363.383 78.5641 355.592Z" fill="#A8C4E5"/>
</g>
<path d="M47.8163 344.329L37.3709 346.458L35.9617 350.092C35.6273 352.691 35.6433 354.077 37.3709 355.456C38.8199 356.604 41.7736 355.719 43.3181 354.994L50.0295 350.953C55.0054 348.211 54.6312 346.171 54.0978 344.497C53.3415 342.632 51.0008 343.07 47.8163 344.329Z" fill="#2C4482"/>
<path d="M70.0127 357.226L59.9097 353.807L56.8684 356.198C55.2761 358.278 54.5914 359.49 55.3876 361.546C56.0643 363.268 59.0657 363.993 60.7615 364.144L68.5956 364.033C74.2721 364.168 74.9647 362.224 75.3468 360.502C75.6334 358.509 73.3963 357.728 70.0127 357.226Z" fill="#2C4482"/>
<path d="M34.3375 227.568C28.6611 236.216 26.1214 247.256 23.8842 257.235C23.3986 259.387 23.2155 260.67 23.7887 262.814C25.6915 269.828 27.841 276.364 28.6611 283.705C29.0751 287.388 34.9108 287.435 34.4888 283.705C33.7805 276.901 32.3609 270.19 30.2533 263.683C29.8473 262.464 29.4015 261.252 28.9397 260.049C29.3617 261.156 28.7964 261.961 29.0114 260.981C29.1547 260.367 29.2821 259.746 29.4174 259.132C31.567 249.511 33.8917 238.831 39.3771 230.51C41.4471 227.369 36.4075 224.444 34.3455 227.568H34.3375Z" fill="#FFC2B0"/>
<path d="M32.6975 229.864C28.8362 236.583 26.0497 247.949 23.51 257.155C22.5467 259.69 23.1517 261.993 24.76 261.89L30.1259 262.631C31.4475 262.543 33.9633 259.682 34.5843 257.554L41.3993 234.16C42.5059 230.35 41.6859 227.074 39.5125 226.588L39.0109 226.508C38.6208 225.106 35.5954 225.09 32.6975 229.864Z" fill="#88BDEB"/>
<path d="M50.7141 272.483L23.8046 288.041C23.5037 288.214 23.1627 288.305 22.8158 288.305C22.4688 288.305 22.128 288.213 21.8274 288.04C21.5268 287.866 21.2769 287.617 21.1027 287.316C20.9286 287.016 20.8363 286.675 20.835 286.328V267.565C20.8338 267.217 20.9246 266.876 21.098 266.575C21.2714 266.274 21.5212 266.024 21.8222 265.851L48.7397 250.277C49.04 250.103 49.3806 250.012 49.7274 250.012C50.0741 250.012 50.4147 250.103 50.7149 250.277C51.0151 250.451 51.2643 250.7 51.4375 251.001C51.6107 251.302 51.7017 251.643 51.7014 251.99V270.753C51.7053 271.103 51.6159 271.448 51.4424 271.752C51.2689 272.056 51.0175 272.308 50.7141 272.483Z" fill="#283D75"/>
<path d="M40.6032 267.182C40.5367 268.37 40.1913 269.525 39.5951 270.554C38.9989 271.583 38.1686 272.457 37.1718 273.104C35.285 274.196 33.7484 273.319 33.7484 271.144C33.8159 269.958 34.1609 268.805 34.7556 267.778C35.3503 266.75 36.178 265.877 37.1718 265.229C39.0109 264.137 40.6032 265.006 40.6032 267.182Z" fill="white"/>
<path d="M36.1527 284.55L34.234 285.459C33.5076 285.788 32.6804 285.815 31.934 285.534C31.1877 285.253 30.5832 284.687 30.2533 283.96C29.9245 283.233 29.8975 282.405 30.1781 281.657C30.4588 280.91 31.0241 280.305 31.7501 279.975L33.7086 279.09C34.435 278.761 35.2622 278.734 36.0086 279.015C36.7549 279.296 37.3594 279.862 37.6893 280.589C38.0059 281.318 38.0221 282.144 37.7344 282.885C37.4467 283.627 36.8783 284.225 36.1527 284.55Z" fill="#FFC2B0"/>
<path opacity="0.46" d="M58.8348 208.686L58.8826 209.794C58.8826 209.794 59.0259 213.11 55.7538 211.388C52.4816 209.666 52.5692 205.53 52.5692 205.53C52.5692 205.53 55.077 205.243 58.8348 208.686Z" fill="white"/>
<path d="M55.7299 211.492C59.9893 213.707 59.838 209.834 59.838 209.834L59.7107 208.511C54.9338 204.43 51.9403 204.621 51.9403 204.621C51.837 206.011 52.1403 207.401 52.8133 208.621C53.4863 209.841 54.4998 210.839 55.7299 211.492ZM52.7524 205.689C52.7524 205.689 55.1408 205.562 58.811 208.734V209.682C58.811 209.682 58.9225 212.568 55.7538 210.918C54.8342 210.393 54.0717 209.631 53.5453 208.712C53.0189 207.792 52.7479 206.749 52.7603 205.689H52.7524Z" fill="#513554"/>
<path d="M61.4382 210.575L58.9065 209.419L58.7711 207.985L61.3028 209.14L61.4382 210.575Z" fill="#513554"/>
<path d="M52.187 205.737L51.7412 205.538C51.5998 205.455 51.4803 205.339 51.393 205.2C51.3057 205.062 51.2531 204.904 51.2396 204.74C51.2396 204.43 51.3829 204.27 51.6297 204.382L52.0756 204.589C52.217 204.672 52.3364 204.787 52.4237 204.926C52.5111 205.065 52.5637 205.223 52.5771 205.386C52.609 205.689 52.4338 205.848 52.187 205.737Z" fill="#513554"/>
<path d="M68.5637 213.221L68.1099 213.014C67.9755 212.934 67.8611 212.824 67.7755 212.693C67.69 212.561 67.6355 212.412 67.6163 212.257C67.6163 211.946 67.7596 211.787 68.0064 211.898L68.4523 212.097C68.5937 212.18 68.7131 212.296 68.8005 212.434C68.8878 212.573 68.9404 212.731 68.9539 212.894C68.9777 213.173 68.8105 213.333 68.5637 213.221Z" fill="#513554"/>
<path d="M68.1975 212.018C68.1975 212.018 64.8616 208.917 60.4988 208.829L60.6262 210.152C60.8836 211.431 61.4551 212.625 62.2891 213.627C63.1231 214.629 64.1933 215.407 65.403 215.891C69.6783 217.597 68.1975 212.018 68.1975 212.018ZM65.2916 215.206C64.3861 214.851 63.5839 214.275 62.9581 213.53C62.3322 212.785 61.9028 211.895 61.7089 210.942L61.5497 209.929C63.7703 210.068 65.8831 210.937 67.5606 212.4C67.5606 212.4 68.4204 216.481 65.2836 215.254L65.2916 215.206Z" fill="#2C4482"/>
<path d="M62.2981 211.723C62.1867 211.595 62.1548 211.436 62.2185 211.364L62.9748 210.527C63.0465 210.455 63.1818 210.527 63.2853 210.631C63.3888 210.75 63.4286 210.918 63.357 210.989L62.5608 211.786C62.537 211.89 62.4016 211.85 62.2981 211.723Z" fill="#2C4482"/>
<path d="M53.238 207.411C53.1345 207.283 53.1026 207.124 53.1663 207.052L53.9625 206.255C54.0262 206.183 54.1695 206.255 54.273 206.351C54.3765 206.478 54.4083 206.638 54.3446 206.709L53.5883 207.506C53.4848 207.578 53.3415 207.53 53.238 207.411Z" fill="#FCFEFF"/>
<path d="M52.2826 293.254C56.1598 304.628 56.5181 316.863 56.1519 328.771C55.8812 337.642 54.48 346.593 54.7029 355.472C54.8462 361.291 63.8983 361.315 63.755 355.472C63.5241 346.346 64.9731 337.14 65.2279 328.03C65.5623 315.619 65.0448 302.691 61.0163 290.847C59.1454 285.355 50.3958 287.714 52.2587 293.238L52.2826 293.254Z" fill="#2C4482"/>
<path d="M34.0748 283.044C36.105 290.432 37.0205 298.052 37.761 305.656C38.1988 310.152 38.7322 314.424 38.2546 318.927C37.3072 327.95 35.6273 337.14 35.691 346.227C35.7308 352.061 44.7829 352.077 44.7431 346.227C44.6794 337.005 46.3991 327.679 47.3545 318.521C47.8321 313.914 47.1873 309.402 46.7255 304.787C45.9294 296.681 44.966 288.504 42.8005 280.637C41.256 275.057 32.5223 277.4 34.043 283.028L34.0748 283.044Z" fill="#2C4482"/>
<path d="M41.4949 295.023C42.3309 295.964 38.7403 291.397 39.8151 292.05C42.0522 293.405 54.6153 301.95 57.2346 301.998C60.4192 302.046 58.5483 298.993 60.9048 296.881C63.134 294.872 63.6595 291.62 63.8745 288.623C64.0636 287.768 63.9665 286.875 63.5981 286.082C63.2297 285.288 62.6106 284.638 61.8363 284.231C56.2633 279.999 45.2766 269.526 37.4744 272.873C28.4621 276.747 37.4903 290.536 41.4949 295.023Z" fill="#2C4482"/>
<path d="M34.9426 228.063C33.2866 230.199 33.4857 231.514 33.5653 234.439C33.6062 235.831 34.0924 237.173 34.9523 238.268C35.8122 239.363 37.0005 240.153 38.3421 240.521L66.3265 248.372C66.3265 248.372 67.9188 237.595 62.4095 234.351C59.4399 232.606 54.8302 229.808 51.1998 227.6C45.8498 224.348 38.7561 223.177 34.9426 228.063Z" fill="#DBEFFF"/>
<path d="M47.7048 227.696L50.0932 217.135L56.526 221.471L54.5914 231.091C54.3765 232.646 47.2351 231.283 47.7048 227.696Z" fill="#FFC2B0"/>
<path d="M51.6059 201.736C51.6059 201.736 45.1572 197.24 45.0935 208.176C45.0997 211.764 46.1167 215.278 48.0277 218.313C49.9388 221.349 52.6664 223.783 55.8971 225.336C59.7744 227.178 64.5194 224.81 64.7343 221.024C65.6578 215.509 65.6658 210.344 63.8586 205.88C64.1133 201.313 60.9765 202.939 55.5548 202.644L51.6059 201.736Z" fill="#FFC2B0"/>
<path d="M47.9197 222.953C47.9197 222.953 40.4599 220.18 41.1684 209.674C41.9646 198.3 52.3781 199.313 58.1899 198.723C60.7615 198.476 62.5448 198.101 65.18 200.452C67.5685 202.596 65.3313 207.395 61.8999 207.706C60.5385 207.833 61.1595 211.5 60.8888 212.767C60.3952 215.007 59.002 216.099 58.5004 218.275C58.0148 220.323 54.9894 223.551 53.023 223.774C49.504 224.181 47.9197 222.953 47.9197 222.953Z" fill="#715154"/>
<path d="M33.438 278.708C31.6626 278.014 32.0845 247.359 33.6848 230.43L65.1881 245.438C65.0289 259.849 63.2137 271.223 64.9333 288.782L33.438 278.708Z" fill="#DBEFFF"/>
<path d="M54.4481 291.915C46.6698 289.077 39.2498 285.969 34.8949 280.621C32.7612 279.377 33.0319 277.201 35.4999 275.774C37.968 274.348 41.7417 274.18 43.8754 275.424L63.4286 286.726C65.5702 287.961 65.2995 290.145 62.8315 291.572C60.3555 292.999 56.5897 293.158 54.4481 291.915Z" fill="#DBEFFF"/>
<path d="M65.212 245.438L60.0211 242.959C59.8062 257.012 58.0865 268.298 59.7823 285.546H59.6947C59.6947 286.527 59.0419 287.563 57.6486 288.36C55.1806 289.795 51.4069 289.954 49.2732 288.711C45.6273 287.446 42.0688 285.941 38.6208 284.207C42.92 287.507 48.5806 289.787 54.4481 291.947C56.5898 293.19 60.3555 293.031 62.8315 291.604C64.2168 290.807 64.9094 289.763 64.8696 288.79H64.9572C63.2375 271.223 65.0527 259.841 65.212 245.438Z" fill="#DBEFFF"/>
<path d="M68.3886 213.564L58.7632 214.489C58.5988 214.504 58.4348 214.455 58.3067 214.35C58.1786 214.246 58.0966 214.095 58.0786 213.931C58.063 213.765 58.1138 213.6 58.2197 213.471C58.3257 213.343 58.4782 213.261 58.6438 213.245L68.2692 212.321C68.4349 212.305 68.5999 212.356 68.7283 212.462C68.8566 212.568 68.9377 212.721 68.9538 212.887C68.9615 212.968 68.9529 213.051 68.9286 213.129C68.9043 213.207 68.8647 213.28 68.8122 213.343C68.7596 213.406 68.6951 213.458 68.6224 213.496C68.5497 213.534 68.4703 213.557 68.3886 213.564Z" fill="#2C4482"/>
<path d="M58.7393 232.167C51.5103 231.075 46.63 235.627 44.9023 225.209C45.4099 224.896 46.0189 224.793 46.601 224.921C47.1831 225.049 47.693 225.398 48.0232 225.894C49.2652 227.688 51.9004 228.82 54.8143 228.461C55.2421 228.408 55.6762 228.477 56.0664 228.66C56.4566 228.844 56.7871 229.134 57.0196 229.497L58.7393 232.167Z" fill="#DCEFFF"/>
<path d="M59.9255 241.597C60.4191 247.622 61.3745 253.138 63.9062 258.67C65.7135 262.655 67.5765 268.33 71.4935 270.841C80.3386 276.5 89.7649 262.009 93.9447 256.494C96.2137 253.505 91.1582 250.595 88.921 253.552C86.5326 256.669 77.775 270.354 73.3087 264.456C68.5318 258.151 66.3902 249.312 65.7613 241.597C65.4587 237.882 59.631 237.85 59.9335 241.597H59.9255Z" fill="#FFC2B0"/>
<path d="M57.0037 241.509C58.7632 256.422 63.4604 265.907 69.9649 270.729C73.3883 272.626 76.5888 267.214 75.2752 263.954C68.8026 258.183 66.5176 249.192 65.9126 238.926C65.452 237.894 64.635 237.062 63.6115 236.583C62.5879 236.104 61.4263 236.011 60.3396 236.32C59.2127 236.57 58.23 237.256 57.6053 238.227C56.9806 239.199 56.7644 240.378 57.0037 241.509Z" fill="white"/>
<path d="M86.4078 258.878L87.2524 259.556C88.8268 260.82 91.1268 260.567 92.3895 258.991L95.2187 255.459C96.4814 253.883 96.2287 251.58 94.6543 250.316L93.8096 249.638C92.2352 248.374 89.9353 248.627 88.6726 250.203L85.8434 253.735C84.5807 255.311 84.8334 257.614 86.4078 258.878Z" fill="#FFC2B0"/>
<path d="M54.7904 219.191C54.4321 219.454 53.636 227.058 60.0211 225.823C66.4061 224.587 65.1164 218.195 65.1164 218.195C65.1164 218.195 60.0529 219.518 58.6437 213.221C57.2346 206.925 54.7904 219.191 54.7904 219.191Z" fill="#715154"/>
<path d="M60.2361 216.067C60.3874 217.868 59.4399 219.414 58.182 219.526C58.0448 219.546 57.9053 219.546 57.768 219.526C56.6534 219.351 55.714 218.091 55.5707 216.489C55.4194 214.688 56.3668 213.141 57.6247 213.03C58.8826 212.918 60.0769 214.273 60.2361 216.067Z" fill="#FFC2B0"/>
<path d="M514.371 278.628L514.005 278.413C512.683 277.663 511.162 278.732 510.613 280.804L503.711 306.653L462.558 283.147L469.469 257.299C470.018 255.242 469.389 252.947 468.075 252.197L467.701 251.982C466.388 251.233 464.867 252.301 464.318 254.373L456.85 282.334L456.117 285.052L447.177 318.529L446.643 320.537L437.511 354.691V354.827L427.528 392.225L427.154 393.628L418.213 427.104L417.481 429.822L408.126 464.893C407.577 466.949 408.206 469.245 409.519 469.994L409.893 470.209C411.207 470.958 412.728 469.89 413.277 467.818L422.074 434.899L463.219 458.381L454.461 491.307C453.912 493.364 454.533 495.659 455.847 496.408L456.221 496.616C457.534 497.413 459.063 496.297 459.612 494.224L515.764 283.753C516.314 281.673 515.685 279.377 514.371 278.628ZM501.856 313.571L494.037 342.831L452.893 319.35L460.711 290.129L501.856 313.571ZM484.34 379.033L443.188 355.544L451.006 326.284L492.151 349.773L484.34 379.033ZM474.699 415.268L433.555 391.778L441.373 362.518L482.517 386.008L474.699 415.268ZM423.89 427.973L431.7 398.713L472.852 422.202L465.034 451.462L423.89 427.973Z" fill="#283D75"/>
<g style="mix-blend-mode:multiply" opacity="0.4">
<path d="M147.542 291.342C148.155 284.273 139.007 277.704 127.109 276.67C115.212 275.636 105.07 280.529 104.458 287.599C103.845 294.668 112.993 301.237 124.89 302.271C136.788 303.305 146.929 298.412 147.542 291.342Z" fill="#A8C4E5"/>
</g>
<path d="M106.452 133.635C106.608 133.288 106.69 132.913 106.694 132.533C106.697 132.153 106.622 131.777 106.472 131.427C106.322 131.078 106.102 130.764 105.824 130.504C105.546 130.245 105.218 130.046 104.86 129.921C102.997 129.259 100.68 129.203 99.669 132.312C98.5146 135.827 95.8157 142.522 93.9925 146.978C93.8622 147.301 93.8473 147.659 93.9503 147.993C94.0533 148.326 94.268 148.613 94.558 148.806C94.8481 148.999 95.1958 149.086 95.5424 149.052C95.889 149.018 96.2133 148.865 96.4605 148.62C97.5986 147.511 98.3732 146.082 98.6818 144.523C98.6818 144.523 97.6627 147.384 96.5959 149.783C96.4699 150.057 96.4286 150.361 96.4772 150.658C96.5258 150.955 96.6621 151.231 96.8685 151.449C97.075 151.668 97.3421 151.82 97.6355 151.885C97.9288 151.95 98.235 151.926 98.5146 151.816C100.696 150.955 103.1 149.225 103.156 145.774C103.22 141.502 105.17 136.48 106.452 133.635Z" fill="#2C4482"/>
<path d="M109.008 134.209C108.06 135.667 106.555 136.369 105.648 135.803C104.74 135.237 104.772 133.547 105.72 132.089C106.667 130.63 108.18 129.929 109.087 130.494C109.995 131.06 109.955 132.75 109.008 134.209Z" fill="#21275E"/>
<path d="M126.873 184.551C126.337 184.87 125.75 185.094 125.137 185.213C123.689 185.42 122.12 184.543 120.679 183.69C120.539 183.62 120.415 183.522 120.313 183.403C120.228 183.265 120.177 183.109 120.162 182.947C120.146 182.786 120.168 182.623 120.225 182.471C120.751 180.701 121.595 180.741 122.813 179.721C123.362 179.259 123.848 178.717 124.405 178.246C125.273 177.546 126.21 176.935 127.2 176.421C128.378 175.767 132.669 173.512 133.569 176.74C133.773 177.264 133.841 177.832 133.766 178.39C133.691 178.947 133.475 179.477 133.139 179.928C132.505 180.873 131.694 181.685 130.75 182.319C129.507 183.146 128.212 183.891 126.873 184.551Z" fill="#FFC2B0"/>
<path d="M120.775 181.443C121.073 180.435 121.49 179.466 122.017 178.557C122.524 177.764 123.267 177.15 124.142 176.804C125.838 176.126 128.664 175.162 129.604 175.815C130.814 176.612 129.604 178.063 128.808 178.932C127.303 180.653 124.771 181.865 122.725 182.638C122.592 182.688 122.448 182.7 122.308 182.675C122.168 182.65 122.037 182.588 121.929 182.495C121.841 182.678 122.598 182.184 122.518 182.375C122.033 183.547 120.313 182.606 120.775 181.443Z" fill="#FFC2B0"/>
<path d="M121.197 180.861L119.198 182.957L123.075 187.508L125.368 185.181L121.197 180.861Z" fill="#D0E7F4"/>
<path d="M135.097 282.765L126.037 275.854L120.751 274.985C119.007 281.864 119.795 281.035 121.802 282.797L129.691 287.714C133.839 289.699 135.161 289.946 137.573 288.886C139.038 287.3 137.653 285.275 135.097 282.765Z" fill="#2C4482"/>
<path d="M124.994 289.332L115.934 282.414L110.648 281.513C108.904 288.4 109.692 287.563 111.699 289.324L119.588 294.242C123.736 296.235 125.058 296.482 127.47 295.422C128.895 293.884 127.51 291.859 124.994 289.332Z" fill="#2C4482"/>
<path d="M109.422 161.803C110.204 161.022 111.132 160.402 112.152 159.978C113.216 159.45 114.315 158.995 115.44 158.615C117.7 157.833 120.08 157.46 122.47 157.515C123.88 157.563 123.88 155.371 122.47 155.331C119.802 155.266 117.144 155.69 114.628 156.582C113.378 157.037 112.158 157.57 110.974 158.176C109.826 158.671 108.787 159.389 107.917 160.289C107.001 161.349 108.546 162.903 109.461 161.835L109.422 161.803Z" fill="white"/>
<path d="M126.825 160.344C127.6 172.057 129.267 183.693 131.809 195.152C133.059 200.644 141.506 198.34 140.248 192.856C137.866 182.167 136.301 171.312 135.567 160.384C135.161 154.805 126.411 154.717 126.809 160.344H126.825Z" fill="#FF5C97"/>
<path d="M124.994 204.557C125.337 228.469 124.087 251.823 120.098 275.36C119.166 280.868 127.59 283.235 128.529 277.687C132.653 253.369 134.102 229.234 133.744 204.557C133.664 198.922 124.915 198.906 124.986 204.557H124.994Z" fill="#FFC2B0"/>
<path d="M113.53 211.364C112.16 235.18 110.051 259.012 110.011 282.876C110.011 288.512 118.768 288.519 118.768 282.876C118.808 259.012 120.926 235.18 122.287 211.364C122.614 205.737 113.864 205.785 113.53 211.364Z" fill="#FFC2B0"/>
<path d="M105.003 214.074C105.887 226.381 113.761 227.624 121.722 223.033C129.683 218.442 134.062 208.008 134.062 198.842C134.062 198.842 129.652 185.236 121.722 189.82C113.792 194.403 103.976 199.791 105.003 214.074Z" fill="#FF5C97"/>
<path d="M132.048 163.238C132.048 163.238 137.303 171.503 136.705 176.485C136.323 179.673 134.03 183.228 133.696 184.248C130.965 192.562 132.478 195.08 132.183 197.376C132.183 197.376 130.36 205.283 110.863 197.814L102.702 173.759L132.048 163.238Z" fill="#FF5C97"/>
<path d="M104.119 179.003C103.637 178.598 103.318 178.032 103.22 177.409C102.726 173.121 100.37 171.168 105.035 163.819C105.783 162.64 115.99 157.339 123.665 155.952C125.478 155.646 127.341 155.96 128.955 156.843C130.568 157.727 131.837 159.129 132.558 160.823C133.279 162.794 133.857 164.816 134.285 166.872C134.651 174.755 131.164 164.401 130.607 168.753C130.607 168.65 130.655 168.546 130.671 168.442C130.687 168.339 129.715 175.791 128.999 181.49C128.553 185.045 128.203 187.612 128.203 187.97V188.018L114.899 198.468L107.893 185.81L104.119 179.003Z" fill="#FF5C97"/>
<path d="M123.187 155.817C123.187 155.817 129.835 162.696 124.071 167.566C118.307 172.436 108.474 161.548 108.474 161.548C113.633 158.312 118.625 156.12 123.187 155.817Z" fill="#FFC2B0"/>
<path d="M134.038 198.842L138.752 231.275C138.772 231.726 138.631 232.17 138.353 232.526C136.538 234.917 127.383 241.238 107.384 237.699C105.075 237.292 104.701 237.181 104.701 235.666L105.871 209.842L117.646 209.722L134.038 198.842Z" fill="#FF5C97"/>
<path d="M120.217 159.787L123.402 147.52L115.727 149.959L113.148 159.97C112.543 161.596 117.877 166.043 120.217 159.787Z" fill="#FFC2B0"/>
<path d="M123.442 156.766C123.549 157.993 123.784 159.206 124.142 160.384C124.54 161.813 124.806 163.275 124.938 164.752C124.95 164.858 124.95 164.965 124.938 165.071C124.938 165.135 125.026 164.872 124.938 165.023C124.553 165.502 124.087 165.909 123.561 166.227C122.548 166.814 121.396 167.117 120.225 167.103C118.092 167.103 116.475 165.908 114.748 164.832C113.952 164.354 113.227 163.883 112.463 163.421C111.348 162.744 110.656 161.612 109.684 160.759C108.713 159.906 107.073 161.381 108.14 162.305C109.207 163.23 110.003 164.465 111.245 165.238C111.89 165.645 112.55 166.035 113.195 166.442C115.194 167.677 117.057 169.016 119.461 169.248C122.08 169.503 125.233 168.514 126.754 166.243C127.613 164.943 126.985 163.054 126.706 161.62C126.499 160.56 126.26 159.508 126.029 158.431C125.95 158.049 125.862 157.634 125.79 157.268C125.79 157.116 125.727 156.965 125.703 156.813C125.679 156.662 125.703 157.045 125.703 156.75C125.703 156.46 125.588 156.182 125.383 155.978C125.179 155.773 124.901 155.658 124.612 155.658C124.323 155.658 124.045 155.773 123.841 155.978C123.636 156.182 123.521 156.46 123.521 156.75L123.442 156.766Z" fill="white"/>
<path d="M122.951 156.24L125.242 155.539C128.77 154.46 130.757 150.722 129.679 147.19L126.131 135.565C125.053 132.033 121.319 130.044 117.791 131.123L115.499 131.825C111.971 132.904 109.985 136.642 111.063 140.174L114.611 151.799C115.689 155.331 119.423 157.319 122.951 156.24Z" fill="#FFC2B0"/>
<path d="M121.499 156.431C119.901 156.61 118.284 156.422 116.77 155.881C116.77 155.881 118.928 158.192 121.308 158.431L121.499 156.431Z" fill="#EA8A6C"/>
<path d="M118.203 134.934C118.203 134.934 116.205 144.658 113.426 147.599L114.334 149.361C114.783 150.238 115.029 151.205 115.053 152.19C115.078 153.175 114.881 154.153 114.477 155.052L114.143 155.801C114.143 155.801 96.0704 145.79 107.519 133.213C115.265 124.708 127.741 129.108 127.733 138.194L118.203 134.934Z" fill="#2C4482"/>
<path d="M113.434 152.469C113.688 152.618 113.978 152.694 114.272 152.687C114.566 152.681 114.853 152.594 115.1 152.434C115.347 152.275 115.546 152.05 115.673 151.785C115.801 151.519 115.853 151.224 115.823 150.931C115.782 150.211 115.54 149.517 115.125 148.928C114.71 148.339 114.138 147.879 113.474 147.599C113.22 147.45 112.93 147.375 112.636 147.381C112.342 147.387 112.055 147.475 111.808 147.634C111.561 147.794 111.362 148.018 111.235 148.284C111.107 148.549 111.056 148.845 111.086 149.138C111.124 149.858 111.365 150.553 111.781 151.142C112.196 151.731 112.769 152.191 113.434 152.469Z" fill="#FFC2B0"/>
<path d="M145.049 202.453L142.111 204.334C140.67 205.251 138.974 205.179 138.337 204.175L137.884 203.473C137.247 202.477 137.884 200.899 139.341 199.982L142.278 198.109C143.711 197.192 145.415 197.264 146.052 198.26L146.498 198.962C147.135 199.934 146.49 201.504 145.049 202.453Z" fill="#FFC2B0"/>
<path d="M120.385 199.313V198.595L121.3 198.954L121.499 198.5L144.539 185.181C144.711 185.102 144.898 185.065 145.087 185.074C145.275 185.082 145.458 185.135 145.622 185.229L155.542 190.959V190.8L157.381 191.533V192.33C157.349 192.416 157.287 192.487 157.206 192.53L133.234 206.383C133.062 206.461 132.873 206.498 132.683 206.49C132.494 206.481 132.309 206.428 132.144 206.335L120.655 199.695C120.585 199.665 120.523 199.617 120.477 199.555C120.431 199.494 120.402 199.421 120.392 199.345L120.385 199.313Z" fill="#A8C4E5"/>
<path d="M133.242 205.593L157.214 191.74C157.493 191.573 157.453 191.294 157.134 191.111L145.646 184.471C145.482 184.378 145.299 184.325 145.11 184.316C144.922 184.308 144.735 184.345 144.563 184.423L120.584 198.284C120.305 198.444 120.345 198.723 120.663 198.906L132.159 205.546C132.324 205.638 132.507 205.69 132.695 205.699C132.883 205.707 133.071 205.671 133.242 205.593Z" fill="#E1EAF4"/>
<path d="M131.602 196.666L137.406 193.319C137.47 193.319 137.462 193.207 137.406 193.159L134.628 191.565C134.586 191.546 134.542 191.536 134.496 191.536C134.451 191.536 134.406 191.546 134.365 191.565L128.561 194.921C128.497 194.921 128.505 195.032 128.561 195.072L131.339 196.666C131.38 196.688 131.425 196.699 131.471 196.699C131.517 196.699 131.562 196.688 131.602 196.666Z" fill="#A8C4E5"/>
<path d="M133.847 190.003C133.913 189.665 134.044 189.343 134.234 189.056C134.424 188.769 134.669 188.522 134.954 188.329L158.759 174.779C158.834 174.725 158.92 174.689 159.011 174.674C159.102 174.659 159.196 174.665 159.284 174.691C159.333 174.714 159.376 174.747 159.411 174.787L160.208 175.584L159.491 175.52L157.23 190.17C157.165 190.508 157.034 190.829 156.844 191.115C156.654 191.4 156.409 191.646 156.123 191.836L133.608 204.685L132.884 205.482L132.788 205.689C132.335 205.785 131.244 205.012 131.244 205.012L133.847 190.003Z" fill="white"/>
<path d="M133.155 206.303L156.959 192.753C157.246 192.562 157.491 192.315 157.681 192.028C157.871 191.74 158.002 191.418 158.066 191.079L160.351 176.278C160.446 175.648 160.112 175.369 159.602 175.664L135.798 189.214C135.224 189.601 134.826 190.2 134.691 190.88L132.406 205.689C132.311 206.319 132.645 206.598 133.155 206.303Z" fill="#2C4482"/>
<path d="M145.805 191.972C145.686 192.769 146.395 192.936 147.398 192.362C148.368 191.84 149.096 190.959 149.428 189.907C149.555 189.11 148.839 188.943 147.836 189.517C146.867 190.042 146.14 190.921 145.805 191.972Z" fill="white"/>
<path d="M102.065 167.111C99.6212 172.762 96.4207 178.581 95.7679 184.798C95.2902 189.341 94.8762 196.754 98.1563 200.341C101.341 203.76 106.556 203.17 110.64 202.309C113.172 201.783 115.632 200.978 118.1 200.213C119.182 199.878 120.265 199.56 121.356 199.241C121.81 199.113 122.948 199.065 122.455 198.93C126.547 199.974 128.29 193.637 124.198 192.601C121.173 191.804 117.702 193.47 114.867 194.347C112.033 195.224 106.691 197.583 103.793 196.284C101.405 195.192 101.978 187.994 102.201 185.515C102.742 180.255 105.608 175.193 107.67 170.427C109.334 166.593 103.69 163.254 102.01 167.111H102.065Z" fill="#FFC2B0"/>
<path d="M100.688 166.394C95.9111 175.887 95.3777 186.129 95.3698 196.3C95.3698 200.883 104.127 201.082 104.127 196.491C104.127 186.926 104.565 177.433 109.087 168.466C111.229 164.242 102.814 162.202 100.696 166.394H100.688Z" fill="#FF5C97"/>
<path d="M132.157 197.499L132.307 196.937C132.758 195.258 131.764 193.53 130.087 193.079L125.397 191.816C123.72 191.365 121.995 192.36 121.544 194.039L121.393 194.601C120.942 196.28 121.936 198.008 123.613 198.459L128.303 199.722C129.98 200.173 131.706 199.178 132.157 197.499Z" fill="#FFC2B0"/>
<path d="M244.415 231.944L194.473 203.075C191.695 201.48 189.513 197.216 189.601 193.574L192.173 89.1031C192.26 85.4606 194.561 83.8186 197.371 85.4207L247.305 114.29C250.092 115.884 252.273 120.149 252.178 123.791L249.59 228.294C249.495 231.944 247.17 233.586 244.415 231.944Z" fill="#2C4482"/>
<path d="M213.254 121.862L202.514 115.661C200.341 114.402 198.629 111.07 198.701 108.217C198.773 105.363 200.596 104.072 202.769 105.331L213.509 111.54C215.691 112.8 217.394 116.131 217.331 118.985C217.259 121.83 215.436 123.122 213.254 121.862Z" fill="#D84177"/>
<path d="M227.609 148.341L211.415 138.983C209.696 137.987 208.342 135.349 208.398 133.093C208.454 130.837 209.895 129.817 211.583 130.813L227.776 140.171C229.496 141.167 230.849 143.805 230.793 146.061C230.77 148.317 229.329 149.337 227.609 148.341Z" fill="white"/>
<path d="M240.713 174.899L210.977 157.698C209.258 156.702 207.904 154.064 207.96 151.808C208.016 149.552 209.457 148.532 211.145 149.528L240.904 166.729C242.632 167.725 243.977 170.363 243.93 172.619C243.882 174.875 242.433 175.895 240.713 174.899Z" fill="#A7D1E8"/>
<path d="M226.685 185.778L210.492 176.421C208.772 175.425 207.419 172.786 207.474 170.531C207.53 168.275 208.971 167.255 210.659 168.251L226.9 177.609C228.628 178.605 229.981 181.243 229.926 183.499C229.854 185.754 228.405 186.775 226.685 185.778Z" fill="white"/>
<path d="M212.283 195.399L201.193 189.023C199.473 188.026 198.12 185.396 198.175 183.14C198.231 180.885 199.672 179.864 201.4 180.861L212.482 187.237C214.21 188.233 215.563 190.864 215.507 193.119C215.452 195.375 214.003 196.395 212.283 195.399Z" fill="#D84177"/>
<path d="M54.4003 184.32C53.4136 184.822 52.3225 185.084 51.2158 185.084C50.109 185.084 49.0179 184.822 48.0312 184.32C46.2638 183.3 46.2558 181.642 48.0312 180.63C49.0184 180.129 50.1093 179.869 51.2158 179.869C52.3222 179.869 53.4131 180.129 54.4003 180.63C56.1518 181.65 56.1598 183.324 54.4003 184.32Z" fill="#2C4482"/>
<path d="M57.6088 179.705L44.759 179.912V166.235H57.6088V179.705Z" fill="#4367C7"/>
<path d="M55.7299 182.463C54.3236 183.182 52.767 183.557 51.1879 183.557C49.6087 183.557 48.0521 183.182 46.6459 182.463C44.1301 181.012 44.1301 178.645 46.6459 177.186C48.0521 176.467 49.6087 176.092 51.1879 176.092C52.767 176.092 54.3236 176.467 55.7299 177.186C58.2377 178.637 58.2377 181.004 55.7299 182.463Z" fill="#4367C7"/>
<path d="M57.6247 169.957L57.3222 169.774C55.4068 168.799 53.2886 168.291 51.1401 168.291C48.9916 168.291 46.8735 168.799 44.9581 169.774L44.7511 169.901V176.772L44.9979 176.923C48.4213 178.9 53.9625 178.908 57.362 176.923L57.6008 176.78L57.6247 169.957Z" fill="#2C4482"/>
<path d="M57.3699 175.608C53.9624 177.577 48.4293 177.561 45.0059 175.608C41.5825 173.655 41.5586 170.427 44.9661 168.434C48.3735 166.442 53.8988 166.482 57.3301 168.434C60.7615 170.387 60.7695 173.639 57.3699 175.608Z" fill="#4367C7"/>
<path d="M59.9097 168.945H42.4264V172.173H59.9097V168.945Z" fill="#4367C7"/>
<path d="M57.37 172.531C55.454 173.504 53.3361 174.011 51.1879 174.011C49.0398 174.011 46.9218 173.504 45.0059 172.531C41.5745 170.547 41.5586 167.35 44.9661 165.358C48.3736 163.365 53.8988 163.397 57.3222 165.382C60.7456 167.366 60.7695 170.571 57.37 172.531Z" fill="white"/>
<path d="M66.8759 150.349C66.8759 142.379 59.838 135.883 51.1601 135.883C42.4821 135.883 35.4363 142.363 35.4363 150.349C35.4566 152.467 35.9574 154.553 36.9008 156.449C37.8442 158.344 39.2055 160.001 40.8819 161.293C42.4218 163.081 43.4699 165.24 43.9231 167.558C44.1026 168.407 44.4993 169.195 45.0742 169.845C45.6492 170.494 46.3828 170.983 47.2032 171.264C49.7132 172.233 52.4867 172.269 55.0214 171.368C55.803 171.077 56.4976 170.591 57.0395 169.956C57.5814 169.322 57.9527 168.559 58.1183 167.741C58.5613 165.459 59.6058 163.337 61.1437 161.596L61.287 161.42C63.0062 160.13 64.4049 158.459 65.3743 156.539C66.3436 154.619 66.8575 152.501 66.8759 150.349Z" fill="#FFE47C"/>
<path opacity="0.51" d="M47.9198 146.882C47.9198 149.728 45.9692 152.629 43.5569 153.362C41.1446 154.095 39.202 152.39 39.202 149.552C39.202 146.715 41.1526 143.805 43.5569 143.064C45.9613 142.323 47.9198 144.036 47.9198 146.882Z" fill="white"/>
<g style="mix-blend-mode:multiply" opacity="0.4">
<path d="M189.84 319.708L290.647 377.981C292.662 379.137 296.165 378.993 298.481 377.654L321.641 364.256C323.966 362.917 324.213 360.884 322.206 359.721L221.391 301.456C219.385 300.292 215.882 300.435 213.557 301.782L190.413 315.157C188.08 316.52 187.826 318.545 189.84 319.708Z" fill="#A8C4E5"/>
</g>
<path d="M189.84 312.264L290.647 370.537C292.662 371.7 296.165 371.549 298.481 370.21L321.641 356.835C323.966 355.496 324.213 353.464 322.206 352.308L221.375 294.035C219.369 292.871 215.866 293.015 213.541 294.362L190.397 307.736C188.08 309.075 187.826 311.108 189.84 312.264Z" fill="#5986FF"/>
<path d="M217.012 278.07L197.443 266.72L216.964 255.434L236.55 266.752L217.012 278.07Z" fill="#EBD265"/>
<path d="M217.028 319.692L197.443 308.374V266.72L217.028 278.038V319.692Z" fill="#DEA749"/>
<path d="M216.957 319.692L236.956 308.374V266.72L216.957 278.038V319.692Z" fill="#324D94"/>
<path d="M243.181 267.931L223.365 256.669L243.054 245.359L262.647 256.685L243.181 267.931Z" fill="#FF619A"/>
<path d="M223.533 256.645V281.434V323.096L243.118 334.414V267.971L223.533 256.645Z" fill="#EF487C"/>
<path d="M243.181 267.971L243.173 334.414L262.838 323.096V256.645L243.181 267.971Z" fill="#324D94"/>
<path d="M268.077 308.342L248.619 297.008L268.085 285.754L287.67 297.08L268.077 308.342Z" fill="#9FD9B4"/>
<path d="M268.132 350.021L248.723 338.694V297.04L268.132 308.366V350.021Z" fill="#45BFAB"/>
<path d="M268.132 350.021L287.542 338.694V297.04L268.132 308.366V350.021Z" fill="#324D94"/>
<path d="M294.357 339.73L274.772 328.404L294.238 317.158L313.823 328.476L294.357 339.73Z" fill="white"/>
<path d="M294.015 366.209L314.014 354.205V328.452L294.015 339.778V366.209Z" fill="#324D94"/>
<path d="M294.389 366.161V339.731L274.804 328.404V354.835L294.389 366.161Z" fill="#DBEFFF"/>
<path d="M526.703 382.134C525.804 386.916 519.148 414.415 531.528 412.693C535.071 412.199 537.945 409.035 540.126 406.436C543.068 402.87 545.665 399.033 547.881 394.975C549.775 391.563 544.553 388.51 542.658 391.922C540.964 395.035 539.04 398.016 536.902 400.841C535.862 402.219 534.721 403.517 533.486 404.723C532.751 405.449 531.93 406.084 531.042 406.612C530.246 407.066 531.154 406.572 531.106 406.859C531.106 406.907 531.17 407.329 531.034 406.691C530.899 406.054 531.098 406.899 530.899 406.325C530.68 405.636 530.538 404.925 530.477 404.205C529.745 397.477 531.313 390.304 532.539 383.744C533.248 379.934 527.42 378.3 526.703 382.15V382.134Z" fill="#FFC2B0"/>
<path d="M518.288 368.64C518.813 370.991 518.288 373.119 517.038 373.382C515.788 373.645 514.427 371.964 513.901 369.612C513.376 367.261 513.941 365.125 515.151 364.83C516.361 364.535 517.794 366.281 518.288 368.64Z" fill="#8585FF"/>
<path d="M528.493 388.124L528.808 388.236C530.533 388.846 532.425 387.942 533.035 386.215L538.297 371.322C538.907 369.596 538.004 367.701 536.279 367.09L535.964 366.979C534.24 366.368 532.347 367.272 531.737 368.999L526.475 383.892C525.865 385.619 526.769 387.513 528.493 388.124Z" fill="#36475C"/>
<path d="M526.073 384.568L526.141 384.588C528.291 385.242 530.564 384.028 531.217 381.875L532.858 376.468C533.511 374.316 532.298 372.041 530.148 371.387L530.079 371.366C527.929 370.712 525.657 371.927 525.004 374.079L523.363 379.486C522.71 381.639 523.923 383.914 526.073 384.568Z" fill="#FFC2B0"/>
<path d="M534.259 381.009L535.303 381.326C536.098 381.568 536.939 381.119 537.18 380.323L537.543 379.125C537.785 378.329 537.336 377.488 536.541 377.246L535.498 376.928C534.702 376.687 533.862 377.136 533.62 377.932L533.257 379.129C533.015 379.925 533.464 380.767 534.259 381.009Z" fill="#FFC2B0"/>
<path d="M536.289 364.838C536.448 364.782 541.368 363.937 541.551 363.937C541.919 363.838 542.307 363.843 542.673 363.951C543.038 364.06 543.367 364.267 543.621 364.551C544.357 365.283 544.909 366.179 545.234 367.165C545.559 368.151 545.648 369.199 545.492 370.226C545.253 371.398 544.585 372.019 543.765 372.011C543.605 372.075 538.685 372.92 538.502 372.92C538.133 373.017 537.745 373.011 537.38 372.901C537.014 372.791 536.686 372.583 536.432 372.298C535.697 371.568 535.144 370.674 534.819 369.689C534.494 368.704 534.406 367.657 534.561 366.631C534.8 365.46 535.469 364.83 536.289 364.838Z" fill="#D84177"/>
<path d="M529.737 364.256C529.975 364.16 537.252 362.909 537.523 362.917C538.406 362.582 539.505 362.861 540.588 363.825C541.676 364.909 542.494 366.235 542.974 367.695C543.454 369.155 543.583 370.707 543.35 372.226C542.992 373.964 542.005 374.889 540.803 374.873C540.556 374.968 533.287 376.212 533.017 376.212C532.125 376.539 531.026 376.268 529.951 375.303C528.863 374.221 528.045 372.897 527.563 371.438C527.082 369.98 526.951 368.429 527.181 366.91C527.539 365.164 528.526 364.256 529.737 364.256Z" fill="#D84177"/>
<path d="M529.737 364.256L511.569 360.119L517.014 387.347L535.102 375.51C535.954 370.21 533.988 364.352 529.737 364.256Z" fill="#DCF1FF"/>
<path d="M513.766 371.063L516.951 385.721C516.951 385.721 535.174 374.69 535.206 374.291C535.388 372.293 535.141 370.279 534.482 368.385L513.766 371.063Z" fill="#D0E7F4"/>
<path d="M507.819 364.591C505.701 370.608 507.333 379.408 511.465 384.262C515.597 389.116 520.684 388.168 522.81 382.15C524.936 376.132 523.304 367.332 519.164 362.486C515.024 357.64 509.944 358.581 507.819 364.591Z" fill="#D84177"/>
<path d="M505.685 365.053C503.559 371.071 505.192 379.87 509.331 384.724C513.471 389.579 518.551 388.63 520.676 382.612C522.802 376.594 521.17 367.795 517.03 362.949C512.89 358.103 507.811 359.067 505.685 365.053Z" fill="#D84177"/>
<path d="M507.142 365.372C505.168 370.951 506.68 379.113 510.518 383.608C514.355 388.104 519.068 387.227 521.035 381.656C523.001 376.084 521.497 367.914 517.659 363.419C513.822 358.924 509.093 359.792 507.142 365.372Z" fill="white"/>
<path d="M521.21 370.553C520.55 367.949 519.333 365.521 517.643 363.435C513.806 358.94 509.101 359.816 507.126 365.388C506.561 366.982 506.075 368.823 506.33 373.04C510.327 367.285 516.258 367.787 521.21 370.553Z" fill="#DCF1FF"/>
<path d="M521.361 377.423C522.221 375.032 521.95 371.39 520.095 369.373C519.522 368.719 518.759 368.259 517.914 368.058H517.404H517.062H513.734C513.607 368.058 513.368 367.675 513.248 367.675H513.137V368.377C512.68 368.546 512.273 368.825 511.949 369.189C511.626 369.553 511.396 369.991 511.282 370.465C510.422 372.896 511.521 376.547 513.368 378.563C513.74 378.979 514.195 379.313 514.704 379.544C515.212 379.774 515.763 379.896 516.322 379.902H516.067C516.154 379.902 516.115 379.902 516.21 379.862L519.1 379.575C519.347 379.575 519.514 379.575 519.745 379.575H519.506V379.424C519.944 379.249 520.337 378.978 520.658 378.632C520.979 378.286 521.219 377.873 521.361 377.423Z" fill="#D0E7F4"/>
<path d="M519.498 366.201L514.084 366.998C513.973 366.998 513.854 366.886 513.742 366.886H513.137V367.34C512.341 367.556 512.014 368.185 511.616 369.317C510.757 371.748 511.808 375.271 513.479 377.232C513.831 377.637 514.269 377.957 514.761 378.17C515.253 378.382 515.786 378.481 516.322 378.459H516.083C516.17 378.459 516.138 378.459 516.226 378.404C516.314 378.348 521.703 377.32 521.918 377.24C522.099 373.411 521.264 369.602 519.498 366.201Z" fill="#5986FF"/>
<path d="M530.931 364.997L519.864 362.526L522.213 366.065L531.783 366.751L530.931 364.997Z" fill="white"/>
<path opacity="0.43" d="M540.445 364.886L533.9 366.145L532.746 364.798L539.378 363.626L540.445 364.886Z" fill="white"/>
<path d="M542.172 509.695L551.368 502.681L556.726 501.765C558.501 508.747 557.697 507.902 555.659 509.687L547.658 514.677C543.446 516.693 542.085 516.949 539.696 515.873C538.192 514.294 539.601 512.246 542.172 509.695Z" fill="#2C4482"/>
<path d="M576.096 520.822L583.11 511.624L588.038 509.313C591.589 515.586 590.594 514.98 589.105 517.283L582.736 524.218C579.209 527.278 577.959 527.876 575.339 527.494C573.453 526.322 574.265 523.971 576.096 520.822Z" fill="#2C4482"/>
<path d="M547.562 378.173L538.876 393.07C537.388 397.852 548.088 401.55 549.664 397.732L556.758 382.7C557.235 381.515 557.254 380.194 556.813 378.995C556.372 377.796 555.501 376.804 554.369 376.212C553.2 375.603 551.841 375.467 550.575 375.832C549.308 376.197 548.23 377.035 547.562 378.173Z" fill="#7FAE90"/>
<path d="M577.489 438.151C578.858 440.309 579.446 442.873 579.153 445.412C577.816 457.065 578.819 466.694 581.78 478.427C584.304 488.422 588.349 498.353 589.925 508.603C590.856 514.629 581.502 516.175 580.57 510.126C579.933 505.989 578.572 501.932 577.386 497.923C575.61 491.65 573.771 485.409 572.195 479.032C568.827 465.522 565.873 450.952 567.999 437.003C568.915 430.994 578.349 431.966 577.425 438.024L577.489 438.151Z" fill="#4264BF"/>
<path d="M559.019 437.083C556.933 444.727 555.953 452.602 555.189 460.469C554.735 465.092 554.114 469.587 554.584 474.21C555.524 483.528 557.195 492.981 557.148 502.363C557.148 508.468 547.642 508.476 547.674 502.363C547.721 492.798 545.978 483.185 545.054 473.668C544.561 468.687 545.373 463.689 545.85 458.723C546.647 450.601 547.69 442.432 549.831 434.541C551.423 428.658 560.587 431.153 558.971 437.059L559.019 437.083Z" fill="#4264BF"/>
<path d="M556.805 449.629C557.681 450.609 553.923 445.835 555.046 446.512C557.434 447.931 570.547 456.874 573.285 456.93C576.597 456.986 574.671 453.782 577.131 451.574C579.464 449.478 580.021 446.066 580.244 442.934C580.447 442.038 580.348 441.099 579.962 440.266C579.576 439.432 578.925 438.75 578.11 438.327C572.266 433.895 560.77 422.936 552.634 426.435C543.167 430.492 552.618 444.926 556.805 449.629Z" fill="#4264BF"/>
<path d="M550.691 379.52C548.963 381.751 549.17 383.13 549.25 386.183C549.29 387.638 549.793 389.041 550.687 390.189C551.581 391.336 552.818 392.167 554.218 392.56L583.524 400.785C583.524 400.785 591.947 392.687 586.167 389.284C583.054 387.458 571.486 381.313 567.689 379.033C562.116 375.63 554.696 374.355 550.691 379.52Z" fill="#7FAE90"/>
<path d="M548.406 432.54C549.274 433.672 550.381 402.021 548.661 381.999L581.645 397.732C581.478 412.821 581.836 431.528 580.745 443.739C576.47 451.932 561.925 441.308 548.406 432.54Z" fill="#7FAE90"/>
<path d="M563.533 382.532L560.181 370.138L568.684 372.529L571.414 382.652C572.004 384.262 566.001 388.853 563.533 382.532Z" fill="#FFC2B0"/>
<path d="M562.745 380.07C562.745 380.07 566.232 378.284 566.248 378.244C566.263 378.204 565.053 380.787 563.326 381.783L562.745 380.07Z" fill="#EA8A6C"/>
<path d="M561.698 354.966L559.334 354.532C555.671 353.858 552.157 356.285 551.484 359.952L549.271 372.012C548.599 375.679 551.022 379.198 554.685 379.871L557.049 380.306C560.712 380.979 564.226 378.553 564.899 374.886L567.112 362.825C567.784 359.159 565.361 355.64 561.698 354.966Z" fill="#FFC2B0"/>
<path d="M564.154 363.515C561.431 364.152 558.23 364.144 555.715 362.502C552.984 360.717 551.782 356.086 554.576 354.412C556.089 353.504 559.544 353.137 562.466 352.627C570.746 351.16 578.174 356.835 576.605 365.611C576.605 365.611 575.109 375.391 569.44 377.567C569.206 377.649 568.956 377.675 568.711 377.644C568.465 377.612 568.23 377.524 568.024 377.385C567.818 377.247 567.648 377.062 567.526 376.846C567.404 376.63 567.334 376.388 567.322 376.14C567.322 376.14 570.579 373.119 566.877 369.636C566.025 368.839 566.08 367.412 566.479 366.01C566.57 365.68 566.575 365.332 566.494 364.999C566.412 364.667 566.247 364.361 566.014 364.11C565.781 363.86 565.487 363.674 565.161 363.57C564.836 363.465 564.489 363.446 564.154 363.515Z" fill="#715255"/>
<path d="M570.037 374.945C569.802 375.126 569.52 375.238 569.225 375.268C568.929 375.297 568.631 375.244 568.365 375.113C568.098 374.982 567.873 374.778 567.716 374.526C567.558 374.274 567.474 373.983 567.474 373.685C567.427 372.957 567.586 372.23 567.933 371.587C568.279 370.944 568.798 370.412 569.432 370.051C569.668 369.869 569.949 369.757 570.245 369.728C570.54 369.698 570.838 369.752 571.105 369.883C571.372 370.014 571.596 370.217 571.754 370.469C571.911 370.721 571.995 371.013 571.996 371.31C572.043 372.039 571.884 372.766 571.538 373.409C571.192 374.052 570.672 374.584 570.037 374.945Z" fill="#FFC2B0"/>
<path d="M581.804 399.255C583.651 404.922 587.871 409.569 589.973 415.196C593.953 425.805 591.931 436.764 587.226 446.799C585.554 450.37 590.856 453.495 592.536 449.908C597.568 439.179 600.211 427.335 596.644 415.73C595.421 411.921 593.765 408.265 591.708 404.834C590.371 402.515 588.524 400.179 587.727 397.661C586.501 393.914 580.562 395.517 581.796 399.303L581.804 399.255Z" fill="#FFC2B0"/>
<path d="M579.241 395.692L583.842 412.311C586.231 416.734 596.342 411.633 594.702 407.831L588.906 392.257C588.396 391.086 587.47 390.148 586.308 389.623C585.145 389.099 583.829 389.026 582.616 389.419C581.355 389.829 580.301 390.71 579.672 391.878C579.044 393.046 578.889 394.412 579.241 395.692Z" fill="#7FAE90"/>
<path d="M363.184 415.85C361.951 416.479 360.587 416.808 359.203 416.808C357.819 416.808 356.455 416.479 355.222 415.85C353.017 414.582 353.001 412.518 355.222 411.258C356.456 410.632 357.82 410.306 359.203 410.306C360.586 410.306 361.95 410.632 363.184 411.258C365.357 412.526 365.373 414.582 363.184 415.85Z" fill="#4367C7"/>
<path d="M364.816 404.507H353.566V413.546H364.816V404.507Z" fill="#4367C7"/>
<path d="M361.504 404.459V413.498C361.462 413.994 361.288 414.47 360.999 414.875C360.711 415.28 360.318 415.6 359.864 415.802C359.157 416.197 358.386 416.467 357.587 416.599C359.504 416.975 361.493 416.694 363.232 415.802C363.685 415.6 364.076 415.279 364.363 414.874C364.651 414.469 364.823 413.993 364.864 413.498V404.459H361.504Z" fill="#4367C7"/>
<path d="M363.184 406.811C361.95 407.437 360.586 407.763 359.203 407.763C357.82 407.763 356.456 407.437 355.222 406.811C353.017 405.536 353.001 403.479 355.222 402.212C356.455 401.582 357.819 401.254 359.203 401.254C360.587 401.254 361.951 401.582 363.184 402.212C365.357 403.487 365.373 405.552 363.184 406.811Z" fill="#E9E9FF"/>
<path d="M362.515 406.364C361.497 406.881 360.372 407.151 359.231 407.151C358.09 407.151 356.965 406.881 355.947 406.364C354.124 405.312 354.116 403.615 355.947 402.563C356.966 402.046 358.092 401.776 359.235 401.776C360.377 401.776 361.504 402.046 362.523 402.563C364.314 403.615 364.322 405.312 362.515 406.364Z" fill="#A1A1E5"/>
<path d="M362.499 404.197C361.48 403.68 360.353 403.41 359.211 403.41C358.068 403.41 356.942 403.68 355.923 404.197C355.457 404.445 355.067 404.814 354.792 405.265C355.073 405.725 355.471 406.103 355.947 406.357C356.965 406.873 358.09 407.143 359.231 407.143C360.372 407.143 361.497 406.873 362.515 406.357C362.983 406.108 363.374 405.736 363.645 405.281C363.365 404.825 362.97 404.451 362.499 404.197Z" fill="#565682"/>
<path d="M355.923 406.365C355.457 406.114 355.066 405.742 354.792 405.289C354.937 405.043 355.12 404.823 355.334 404.635C356.89 404.35 358.497 404.588 359.904 405.313C360.367 405.561 360.755 405.93 361.026 406.381C361.125 406.536 361.193 406.709 361.225 406.891C360.955 406.955 360.708 407.002 360.493 407.034C358.937 407.318 357.332 407.083 355.923 406.365Z" fill="#6B6B9B"/>
<path d="M362.69 408.66C363.128 408.899 363.582 409.106 364.004 409.369C364.156 409.449 364.296 409.551 364.418 409.672C364.505 409.76 364.474 409.728 364.513 409.808C364.513 409.616 364.513 409.76 364.513 409.808C364.577 410.7 364.585 411.601 364.577 412.502C364.577 412.932 364.577 413.363 364.577 413.793C364.577 413.881 364.577 413.976 364.577 414.072C364.577 414.16 364.577 414.168 364.577 414.072C364.577 414.144 364.577 414.168 364.577 414.128C364.577 414.088 364.577 414.128 364.577 414.128C364.577 414.128 364.681 414.032 364.792 414.064C364.688 414.064 364.943 414.136 364.792 414.064C364.529 413.921 364.37 413.913 364.052 413.753L363.383 413.41C363.217 413.32 363.022 413.296 362.839 413.344C362.656 413.391 362.498 413.506 362.396 413.665C362.302 413.831 362.275 414.027 362.323 414.211C362.371 414.396 362.488 414.554 362.65 414.654C362.945 414.805 363.232 414.965 363.534 415.1C363.902 415.318 364.312 415.456 364.736 415.507C365.021 415.492 365.292 415.385 365.51 415.2C365.727 415.016 365.878 414.765 365.938 414.486C366.021 413.978 366.047 413.462 366.018 412.948C366.059 411.853 366.033 410.756 365.938 409.664C365.811 408.445 364.346 407.935 363.431 407.441C362.515 406.946 361.886 408.238 362.706 408.684L362.69 408.66Z" fill="#45446C"/>
<g style="mix-blend-mode:multiply" opacity="0.4">
<path d="M353.244 514.272C353.286 506.48 342.395 500.105 328.919 500.032C315.442 499.959 304.483 506.216 304.441 514.008C304.399 521.799 315.29 528.174 328.766 528.247C342.243 528.32 353.202 522.063 353.244 514.272Z" fill="#A8C4E5"/>
</g>
<g style="mix-blend-mode:multiply" opacity="0.4">
<path d="M587.142 515.021C587.184 507.229 576.293 500.854 562.817 500.781C549.34 500.708 538.381 506.965 538.339 514.756C538.297 522.548 549.188 528.923 562.664 528.996C576.141 529.069 587.1 522.812 587.142 515.021Z" fill="#A8C4E5"/>
</g>
<path d="M315.869 499.756L310.296 506.714L309.5 511.329C310.734 513.649 311.546 514.765 313.743 514.884C315.598 514.988 317.493 512.549 318.337 511.066L321.474 503.893C323.95 498.768 322.469 497.325 321.06 496.273C319.348 495.189 317.724 496.879 315.869 499.756Z" fill="#283D75"/>
<path d="M340.223 510.436L329.794 512.7L328.432 516.343C328.13 518.949 328.161 520.328 329.905 521.691C331.37 522.823 334.316 521.898 335.852 521.157L342.516 517.036C347.452 514.23 347.054 512.206 346.497 510.532C345.677 508.667 343.384 509.129 340.223 510.436Z" fill="#283D75"/>
<path d="M309.022 386.247C303.322 394.895 300.806 405.934 298.553 415.921C298.067 418.073 297.884 419.357 298.45 421.461C300.352 428.483 302.51 435.011 303.33 442.352C303.744 446.042 309.572 446.082 309.158 442.352C308.446 435.561 307.027 428.864 304.922 422.369C304.516 421.142 304.07 419.978 303.601 418.735C304.03 419.835 303.457 420.648 303.68 419.66C303.823 419.046 303.951 418.432 304.086 417.81C306.236 408.19 308.561 397.517 314.046 389.196C316.116 386.008 311.068 383.13 309.014 386.247H309.022Z" fill="#FFC2B0"/>
<path d="M307.916 387.243C304.237 392.376 301.507 402.387 298.871 410.071C297.916 412.127 298.338 414.335 299.755 414.622L304.421 416.551C305.583 416.782 307.916 414.797 308.552 413.036L315.559 393.612C316.705 390.423 316.132 387.323 314.245 386.374L314.356 384.653C314.086 383.306 310.67 383.64 307.916 387.243Z" fill="#283D75"/>
<path d="M315.272 425.869C315.205 427.055 314.859 428.209 314.263 429.237C313.667 430.264 312.837 431.136 311.841 431.783C309.946 432.883 308.417 432.006 308.417 429.83C308.482 428.643 308.826 427.488 309.421 426.459C310.016 425.43 310.845 424.556 311.841 423.908C313.72 422.816 315.272 423.693 315.272 425.869Z" fill="white"/>
<path opacity="0.46" d="M333.52 367.372L333.559 368.472C333.559 368.472 333.703 371.796 330.438 370.066C327.174 368.337 327.254 364.208 327.254 364.208C327.254 364.208 329.762 363.921 333.52 367.372Z" fill="white"/>
<path d="M330.399 370.17C334.658 372.386 334.507 368.512 334.507 368.512L334.379 367.197C329.602 363.108 326.609 363.307 326.609 363.307C326.507 364.696 326.811 366.085 327.484 367.303C328.157 368.522 329.17 369.518 330.399 370.17ZM327.421 364.368C327.421 364.368 329.809 364.24 333.48 367.412V368.369C333.48 368.369 333.591 371.246 330.422 369.596C329.506 369.069 328.746 368.307 328.223 367.388C327.699 366.468 327.431 365.426 327.445 364.368H327.421Z" fill="#513554"/>
<path d="M336.123 369.254L333.591 368.098L333.448 366.663L335.98 367.819L336.123 369.254Z" fill="#513554"/>
<path d="M326.872 364.423L326.418 364.256C326.278 364.172 326.161 364.056 326.075 363.917C325.989 363.778 325.938 363.621 325.924 363.459C325.924 363.156 326.068 362.989 326.314 363.1L326.76 363.307C326.902 363.39 327.021 363.506 327.108 363.644C327.196 363.783 327.248 363.941 327.262 364.104C327.286 364.375 327.111 364.535 326.872 364.423Z" fill="#513554"/>
<path d="M327.923 366.089C327.819 365.962 327.787 365.802 327.851 365.731L328.607 364.894C328.671 364.822 328.814 364.894 328.918 364.997C329.021 365.117 329.053 365.284 328.99 365.356L328.193 366.153C328.169 366.257 328.01 366.217 327.923 366.089Z" fill="#FCFEFF"/>
<path d="M326.967 451.932C330.837 463.314 331.195 475.541 330.837 487.449C330.566 496.321 329.165 505.272 329.388 514.151C329.531 519.969 338.583 519.993 338.44 514.151C338.209 505.032 339.658 495.818 339.905 486.716C340.247 474.306 339.729 461.378 335.693 449.525C333.83 444.034 325.08 446.393 326.935 451.916L326.967 451.932Z" fill="#2C4482"/>
<path d="M308.76 441.722C310.79 449.111 311.705 456.731 312.446 464.343C312.884 468.838 313.409 473.11 312.939 477.606C311.992 486.628 310.312 495.826 310.376 504.913C310.376 510.739 319.468 510.755 319.428 504.913C319.364 495.683 321.084 486.365 322.031 477.207C322.509 472.592 321.864 468.081 321.41 463.474C320.614 455.368 319.651 447.19 317.485 439.315C315.941 433.736 307.207 436.127 308.728 441.706L308.76 441.722Z" fill="#2C4482"/>
<path d="M316.172 453.702C317.008 454.642 313.417 450.083 314.492 450.729C316.737 452.084 329.3 460.636 331.919 460.676C335.104 460.732 333.233 457.671 335.582 455.559C337.93 453.447 338.344 450.298 338.559 447.309C338.684 446.485 338.605 445.642 338.328 444.854C337.901 444.063 337.279 443.393 336.521 442.91C330.948 438.677 319.961 428.204 312.159 431.56C303.147 435.425 312.175 449.214 316.172 453.702Z" fill="#2C4482"/>
<path d="M309.627 386.741C307.971 388.877 308.17 390.2 308.25 393.117C308.288 394.51 308.774 395.854 309.634 396.949C310.494 398.044 311.684 398.833 313.027 399.199L341.011 407.058C341.011 407.058 342.604 396.282 337.094 393.03C334.125 391.284 329.507 388.486 325.885 386.279C320.534 383.035 313.441 381.791 309.627 386.741Z" fill="#4367C7"/>
<path d="M322.382 386.382L324.77 375.821L331.195 380.197L329.252 389.762C329.061 391.356 321.92 389.969 322.382 386.382Z" fill="#FFC2B0"/>
<path d="M326.291 360.422C326.291 360.422 319.842 355.927 319.778 366.854C319.782 370.442 320.797 373.956 322.707 376.992C324.616 380.027 327.343 382.462 330.574 384.015C334.459 385.864 339.204 383.497 339.411 379.711C340.334 374.187 340.35 369.022 338.543 364.567C338.798 360 335.661 361.626 330.239 361.331L326.291 360.422Z" fill="#FFC2B0"/>
<path d="M322.604 381.632C322.604 381.632 315.145 378.858 315.853 368.353C316.649 356.979 327.063 357.991 332.867 357.401C335.438 357.154 337.23 356.787 339.865 359.139C342.253 361.275 340.016 366.081 336.585 366.392C335.223 366.512 335.844 370.186 335.566 371.445C335.08 373.685 333.687 374.777 333.177 376.953C332.691 379.009 329.666 382.23 327.7 382.453C324.181 382.859 322.604 381.632 322.604 381.632Z" fill="#283D75"/>
<path d="M308.146 437.386C306.363 436.701 306.793 406.046 308.393 389.116L339.897 404.109C339.737 418.52 337.914 429.894 339.642 447.453L308.146 437.386Z" fill="#4367C7"/>
<path d="M329.133 450.601C321.346 447.756 313.934 444.647 309.58 439.299C307.438 438.064 307.709 435.88 310.185 434.453C312.653 433.026 316.426 432.859 318.56 434.11L338.113 445.405C340.255 446.648 339.984 448.824 337.516 450.251C335.04 451.677 331.274 451.837 329.133 450.601Z" fill="#4367C7"/>
<path d="M339.897 404.109L334.706 401.638C334.491 415.682 332.771 426.968 334.467 444.217H334.379C334.379 445.189 333.719 446.225 332.333 447.03C329.865 448.457 326.092 448.625 323.958 447.373C320.313 446.107 316.755 444.606 313.305 442.878C317.597 446.17 323.257 448.457 329.133 450.617C331.274 451.853 335.04 451.693 337.516 450.266C338.901 449.469 339.594 448.425 339.554 447.453H339.642C337.914 429.902 339.737 418.528 339.897 404.109Z" fill="#4367C7"/>
<path d="M333.424 390.846C326.195 389.762 321.315 394.313 319.587 383.888C320.095 383.577 320.703 383.475 321.285 383.603C321.867 383.73 322.376 384.078 322.708 384.573C323.95 386.366 326.585 387.498 329.499 387.14C329.927 387.087 330.36 387.157 330.75 387.34C331.14 387.523 331.471 387.813 331.704 388.176L333.424 390.846Z" fill="white"/>
<path d="M334.61 400.275C335.104 406.309 336.059 411.824 338.591 417.348C340.398 421.333 342.253 427.016 346.178 429.519C355.023 435.178 364.45 420.688 368.629 415.172C370.898 412.183 365.843 409.274 363.598 412.231C361.209 415.355 352.492 429.041 347.985 423.135C343.209 416.83 341.075 407.991 340.446 400.275C340.143 396.561 334.316 396.529 334.618 400.275H334.61Z" fill="#FFC2B0"/>
<path d="M334.921 374.753C335.072 376.547 334.125 378.101 332.867 378.204C332.729 378.224 332.59 378.224 332.453 378.204C331.338 378.029 330.391 376.77 330.255 375.168C330.104 373.366 331.051 371.82 332.309 371.708C333.567 371.597 334.761 372.952 334.921 374.753Z" fill="#FFC2B0"/>
<path d="M331.657 400.124L335.39 415.587C337.468 419.739 346.934 415.339 345.541 411.793L340.669 397.254C340.227 396.165 339.4 395.277 338.346 394.759C337.291 394.241 336.083 394.131 334.953 394.449C333.784 394.795 332.791 395.575 332.178 396.63C331.566 397.686 331.379 398.935 331.657 400.124Z" fill="#4367C7"/>
<path d="M336.171 359.896C336.171 360.785 335.907 361.654 335.414 362.394C334.921 363.133 334.219 363.709 333.399 364.049C332.578 364.389 331.675 364.478 330.804 364.305C329.933 364.132 329.133 363.703 328.505 363.075C327.877 362.446 327.45 361.645 327.276 360.773C327.103 359.901 327.192 358.997 327.532 358.176C327.872 357.354 328.447 356.652 329.186 356.158C329.924 355.664 330.792 355.401 331.68 355.401C332.871 355.403 334.012 355.877 334.853 356.72C335.695 357.562 336.169 358.704 336.171 359.896Z" fill="#283D75"/>
<path d="M341.234 359.386C341.234 360.275 340.971 361.144 340.477 361.884C339.984 362.623 339.283 363.199 338.462 363.539C337.642 363.879 336.739 363.969 335.868 363.795C334.997 363.622 334.197 363.193 333.569 362.565C332.941 361.936 332.513 361.135 332.34 360.263C332.167 359.391 332.256 358.487 332.595 357.666C332.935 356.844 333.511 356.142 334.249 355.648C334.988 355.154 335.856 354.891 336.744 354.891C337.935 354.891 339.077 355.364 339.919 356.207C340.761 357.05 341.234 358.194 341.234 359.386Z" fill="#283D75"/>
<path d="M341.935 363.977C341.935 364.866 341.671 365.735 341.178 366.475C340.685 367.214 339.983 367.79 339.163 368.13C338.342 368.47 337.439 368.56 336.568 368.386C335.697 368.213 334.897 367.784 334.269 367.156C333.641 366.527 333.214 365.726 333.041 364.854C332.867 363.982 332.956 363.078 333.296 362.257C333.636 361.435 334.211 360.733 334.95 360.239C335.688 359.745 336.556 359.482 337.444 359.482C338.635 359.482 339.777 359.955 340.62 360.798C341.462 361.641 341.935 362.785 341.935 363.977Z" fill="#283D75"/>
<g style="mix-blend-mode:multiply" opacity="0.4">
<path d="M286.022 400.785V391.085C286.022 389.172 284.867 387.339 282.503 385.968L195.214 335.323C189.983 332.286 180.835 332.653 174.785 336.12L16.4323 427.343C13.2875 429.16 11.6077 431.456 11.4485 433.672V434.054C11.4485 434.158 11.4485 434.254 11.4485 434.357L11.6793 442.439C10.8832 444.91 11.9182 447.413 14.9356 449.167L102.248 499.812C104.868 501.326 108.458 501.996 112.152 501.852C113.082 501.812 114.01 501.724 114.931 501.589C116.761 501.32 118.554 500.838 120.273 500.154C121.094 499.823 121.892 499.437 122.661 498.999L281.038 407.775C284.222 405.918 285.934 403.559 286.03 401.295C286.022 401.12 286.03 400.921 286.022 400.785Z" fill="#A8C4E5"/>
</g>
<path d="M0.262727 435.991L0 427.224L11.2893 434.557C11.2893 434.557 8.10472 442.527 7.75442 442.232L0.262727 435.991Z" fill="white"/>
<path d="M90.8397 493.379L3.52693 442.694C-1.70372 439.666 -1.04293 434.381 5.00775 430.89L163.368 339.683C169.419 336.199 178.559 335.833 183.789 338.886L271.102 389.531C276.333 392.567 275.672 397.852 269.621 401.335L111.269 492.527C105.218 496.01 96.0704 496.376 90.8397 493.379Z" fill="white"/>
<path d="M100.425 444.807L163.368 339.683C169.419 336.199 178.559 335.833 183.789 338.886L271.102 389.531C276.333 392.567 275.672 397.852 269.621 401.335L111.269 492.527C108.035 494.296 104.428 495.274 100.744 495.38L100.425 444.807Z" fill="#DBEFFF"/>
<path d="M169.331 410.023L185.405 388.247L274.645 384.629L274.613 394.839L177.046 425.805L169.331 410.023Z" fill="#DBEFFF"/>
<path d="M86.0947 485.194C86.0947 486.708 85.0199 487.322 83.7063 486.557C83.0115 486.102 82.4332 485.489 82.0183 484.769C81.6034 484.049 81.3635 483.242 81.3179 482.412C81.3179 480.898 82.4006 480.284 83.7063 481.049C84.4016 481.503 84.9801 482.116 85.3951 482.836C85.81 483.556 86.0497 484.363 86.0947 485.194Z" fill="#2C4482"/>
<path d="M90.8556 483.344L3.54279 432.699C-1.68785 429.663 -1.02706 424.378 5.02362 420.895L163.384 329.688C169.427 326.196 178.574 325.838 183.805 328.89L271.118 379.544C276.349 382.572 275.688 387.857 269.637 391.34L111.285 482.532C105.234 486.015 96.0863 486.381 90.8556 483.344Z" fill="#2C4482"/>
<path d="M230.379 364.607L206.272 350.618C205.277 350.044 205.405 349.024 206.551 348.371C207.144 348.043 207.806 347.858 208.483 347.831C209.16 347.803 209.834 347.933 210.452 348.211L234.559 362.2C235.554 362.773 235.427 363.794 234.273 364.447C233.681 364.775 233.021 364.96 232.345 364.988C231.669 365.016 230.996 364.885 230.379 364.607Z" fill="#5366C4"/>
<path d="M54.9895 469.364L35.6194 458.134C35.1662 457.805 34.7956 457.376 34.5372 456.879C34.2787 456.382 34.1395 455.832 34.1306 455.272C34.1306 454.18 34.8073 453.678 35.6274 454.148L54.9895 465.379C55.4444 465.704 55.8163 466.131 56.075 466.627C56.3337 467.123 56.4719 467.673 56.4783 468.232C56.4783 469.332 55.8095 469.842 54.9895 469.364Z" fill="#2C4482"/>
<path d="M247.059 410.796L256.612 405.288C256.925 405.065 257.181 404.771 257.359 404.431C257.538 404.09 257.633 403.712 257.639 403.328C257.639 402.57 257.178 402.22 256.612 402.531L247.059 408.03C246.746 408.255 246.49 408.551 246.312 408.893C246.133 409.234 246.037 409.613 246.032 409.999C246.008 410.772 246.493 411.123 247.059 410.796Z" fill="#2C4482"/>
<path d="M233.508 419.253L243.062 413.753C243.376 413.529 243.633 413.234 243.813 412.892C243.992 412.55 244.09 412.171 244.097 411.785C244.097 411.027 243.635 410.677 243.07 410.988L233.516 416.487C233.202 416.712 232.945 417.007 232.766 417.349C232.586 417.691 232.489 418.07 232.481 418.456C232.473 419.253 232.943 419.612 233.508 419.253Z" fill="#2C4482"/>
<path d="M168.296 334.924L35.1337 411.625C34.4278 412.034 33.8418 412.621 33.4344 413.329C33.027 414.036 32.8125 414.838 32.8125 415.654C32.8125 416.471 33.027 417.273 33.4344 417.98C33.8418 418.687 34.4278 419.275 35.1337 419.683L115.839 466.495C116.544 466.902 117.345 467.116 118.159 467.116C118.974 467.116 119.774 466.902 120.48 466.495L253.643 389.794C254.35 389.386 254.939 388.8 255.348 388.092C255.756 387.385 255.972 386.582 255.972 385.764C255.972 384.947 255.756 384.144 255.348 383.437C254.939 382.729 254.35 382.143 253.643 381.735L172.946 334.932C172.24 334.522 171.438 334.305 170.622 334.303C169.806 334.302 169.004 334.516 168.296 334.924Z" fill="#00008F"/>
<path d="M203.932 364.63C184.705 353.519 153.623 353.472 134.516 364.503C115.409 375.534 115.504 393.516 134.731 404.627C153.958 415.738 185.039 415.786 204.147 404.754C223.254 393.723 223.158 375.749 203.932 364.63ZM146.132 398.043C133.234 390.591 133.171 378.539 145.988 371.134C158.806 363.73 179.641 363.77 192.531 371.222C205.42 378.675 205.492 390.718 192.682 398.123C179.872 405.528 159.021 405.496 146.132 398.043Z" fill="#2C4482"/>
<path d="M204.147 404.754C215.842 397.995 220.332 388.646 217.681 379.862L201.814 381.616C203.494 387.458 200.46 393.643 192.706 398.123C182.093 404.26 165.996 405.296 153.448 401.231L145.137 409.202C163.894 415.459 188.192 413.976 204.147 404.754Z" fill="#FF5C97"/>
<path d="M172.181 356.325L170.924 365.635C178.774 365.882 186.52 367.747 192.531 371.214C197.976 374.363 201.129 378.324 201.997 382.421L218.095 381.624C216.893 375.431 212.172 369.405 203.932 364.639C195.055 359.521 183.726 356.748 172.181 356.325Z" fill="white"/>
<path d="M127.279 429.408L90.1869 407.975C87.7507 406.564 88.0612 404.077 90.8715 402.451C93.6899 400.857 97.9811 400.65 100.425 402.052L137.517 423.493C139.954 424.904 139.651 427.391 136.833 429.017C134.014 430.643 129.715 430.818 127.279 429.408Z" fill="white"/>
<path d="M108.976 439.411L71.8836 417.97C69.4474 416.559 69.7579 414.08 72.5683 412.454C75.3867 410.86 79.6858 410.645 82.122 412.056L119.214 433.496C121.65 434.907 121.34 437.386 118.522 439.012C115.711 440.638 111.412 440.821 108.976 439.411Z" fill="white"/>
<path d="M486.283 94.8501C485.065 102.621 482.255 108.304 478.385 115C477.12 117.2 475.75 119.16 476.172 121.719C476.753 125.234 477.86 128.574 478.25 132.16C478.688 136.09 472.534 136.058 472.104 132.16C471.403 125.744 468.481 120.922 471.531 114.737C473.123 111.493 475.273 108.552 476.944 105.347C478.911 101.561 479.699 97.3768 480.352 93.2161C480.957 89.3185 486.888 90.9684 486.283 94.8103V94.8501Z" fill="#FFC2B0"/>
<path d="M487.78 94.9775C485.272 102.151 481.928 108.814 479.134 115.829C477.199 120.675 469.27 118.554 471.228 113.645C474.023 106.63 477.366 99.9352 479.874 92.7935C481.618 87.8438 489.539 89.972 487.78 94.9775Z" fill="#88BDEB"/>
<path d="M490.009 139.334C483.115 142.442 474.628 148.285 471.101 155.219C469.039 159.276 469.349 163.421 469.58 167.757L470.798 190.577C471.101 196.156 462.423 196.156 462.128 190.577L460.791 165.629C460.48 159.834 461.356 154.111 464.588 149.154C469.365 141.845 477.756 135.388 485.63 131.834C490.678 129.554 495.096 137.038 490.009 139.334Z" fill="#FFC2B0"/>
<path d="M437.201 171.447C443.475 164.609 447.957 156.598 454.995 150.389C459.358 146.539 464.095 144.411 469.787 146.077C476.65 148.07 482.31 148.468 488.544 144.26C493.194 141.135 497.541 148.66 492.923 151.76C487.298 155.641 480.38 157.163 473.648 156C471.3 155.61 469.11 154.781 466.81 154.247C465.854 154.024 465.934 153.976 465.432 154.04C463.378 154.319 461.539 156.128 460.114 157.459C453.617 163.501 449.286 171.105 443.331 177.585C439.55 181.706 433.427 175.552 437.201 171.447Z" fill="#FFC2B0"/>
<path d="M438.395 183.06L438.124 182.511C438.088 182.435 438.067 182.352 438.063 182.268C438.058 182.184 438.07 182.1 438.098 182.021C438.127 181.942 438.17 181.869 438.226 181.806C438.283 181.744 438.351 181.694 438.427 181.658C438.502 181.621 438.583 181.6 438.666 181.595C438.749 181.59 438.832 181.602 438.91 181.629C438.989 181.656 439.061 181.699 439.123 181.755C439.185 181.81 439.235 181.877 439.271 181.953L439.542 182.511C439.578 182.585 439.599 182.667 439.604 182.75C439.609 182.833 439.598 182.916 439.57 182.994C439.543 183.073 439.5 183.145 439.445 183.207C439.389 183.269 439.322 183.32 439.247 183.355C439.172 183.393 439.09 183.416 439.006 183.421C438.922 183.427 438.838 183.415 438.759 183.388C438.68 183.36 438.606 183.317 438.544 183.261C438.481 183.205 438.431 183.137 438.395 183.06Z" fill="#514677"/>
<path d="M438.196 181.833L439.924 179.506C439.973 179.439 440.035 179.383 440.107 179.34C440.178 179.298 440.257 179.27 440.339 179.258C440.421 179.246 440.505 179.25 440.585 179.271C440.666 179.292 440.741 179.328 440.808 179.378C440.875 179.428 440.932 179.49 440.976 179.562C441.019 179.634 441.048 179.713 441.06 179.796C441.073 179.879 441.069 179.964 441.049 180.045C441.029 180.127 440.993 180.203 440.943 180.271L439.223 182.59C439.122 182.725 438.972 182.815 438.805 182.84C438.638 182.865 438.468 182.824 438.332 182.726C438.197 182.624 438.107 182.474 438.082 182.307C438.057 182.14 438.098 181.97 438.196 181.833Z" fill="#423A66"/>
<path d="M446.755 174.644C446.994 173.121 446.388 170.826 445.417 170.459L440.776 172.292L440.393 172.157C438.132 172.786 427.528 174.715 424.248 175.791C422.576 176.341 423.945 178.453 423.945 178.453C427.408 182.184 432.751 183.331 432.751 183.331C435.338 183.435 435.41 180.996 439.056 179.737C439.669 179.529 440.696 179.601 440.513 180.095L438.332 182.726L439.422 183.244C439.422 183.244 442.893 179.753 445.361 177.505C445.798 177.168 446.152 176.734 446.393 176.238C446.635 175.741 446.759 175.196 446.755 174.644Z" fill="#2C4482"/>
<path d="M445.091 169.773L442.217 169.925C442.217 169.925 432.567 173.607 430.689 174.38C428.499 175.273 432.281 182.431 443.427 175.879C450.091 173.01 445.091 169.773 445.091 169.773Z" fill="#FFC2B0"/>
<path d="M479.524 126.007C464.652 135.452 455.576 144.084 456.141 148.141C456.141 148.141 463.545 144.029 469.357 147.408C475.169 150.788 473.855 153.617 472.39 155.163C471.929 155.642 474.938 158.854 475.575 158.878C482.47 159.085 503.806 156.566 504.236 143.55C504.594 132.519 503.09 131.196 503.09 131.196C503.09 131.196 487.613 136.576 479.524 126.007Z" fill="#BC4073"/>
<path d="M483.847 94.9775C483.847 94.9775 478.178 102.868 478.489 107.842C478.688 111.03 480.742 114.665 481.021 115.693C483.25 124.078 481.61 126.485 481.777 128.781C481.777 128.781 483.13 136.751 502.859 130.431L511.616 107.316L483.847 94.9775Z" fill="#DBEFFF"/>
<path d="M509.467 112.736C509.65 112.441 511.513 109.492 511.585 109.157C512.452 105.244 514.769 102.263 510.566 97.0739C509.698 95.9979 500.088 90.0359 492.573 88.2266C490.794 87.8192 488.93 88.0231 487.28 88.8052C485.631 89.5874 484.293 90.9025 483.481 92.5387C482.656 94.4501 481.969 96.4187 481.427 98.4289C480.631 106.216 484.659 96.1653 484.962 100.509C484.962 100.406 484.962 100.294 484.962 100.19C484.962 100.087 485.487 107.531 485.877 113.206C486.116 116.753 486.283 119.312 486.291 119.671V119.718L498.862 130.877L506.481 118.762L509.467 112.736Z" fill="#DBEFFF"/>
<path d="M493.05 88.1389C493.05 88.1389 486.076 94.5712 491.506 99.7282C496.936 104.885 507.285 94.6589 507.285 94.6589C502.365 91.1598 497.588 88.7048 493.05 88.1389Z" fill="#FFC2B0"/>
<path d="M511.585 109.197C510.733 109.548 508.4 112.728 506.513 114.37C502.907 117.558 497.676 119.415 493.058 118.028C488.364 116.501 483.83 114.514 479.524 112.098C479.524 112.098 480.917 120.547 479.524 126.047C478.6 129.705 486.323 132.471 486.323 132.471C494.866 135.659 503.114 131.236 503.114 131.236L509.443 114.29L511.585 109.197Z" fill="#DBEFFF"/>
<path d="M491.116 87.852C490.486 89.2438 490 90.6968 489.667 92.188C489.098 93.7791 488.758 95.4429 488.656 97.1297C488.656 98.2775 489.635 99.226 490.487 99.8876C491.57 100.732 492.844 101.296 494.197 101.53C495.522 101.767 496.883 101.699 498.178 101.33C499.241 100.957 500.263 100.474 501.227 99.8876C502.182 99.3615 503.137 98.8355 504.093 98.2935C504.54 98.0751 504.962 97.8077 505.351 97.4964C505.932 97.0261 506.378 96.4283 506.943 95.966C507.144 95.7605 507.256 95.4844 507.256 95.1969C507.256 94.9094 507.144 94.6333 506.943 94.4277C506.736 94.2304 506.461 94.1203 506.175 94.1203C505.889 94.1203 505.614 94.2304 505.407 94.4277C504.729 95.1125 503.987 95.7316 503.193 96.2769C502.54 96.6196 501.896 96.9703 501.251 97.329C499.563 98.2456 497.907 99.3934 495.924 99.4412C494.759 99.4797 493.604 99.2045 492.581 98.6442C492.065 98.3678 491.597 98.0098 491.195 97.5841C491.042 97.4076 490.903 97.2182 490.781 97.0182C490.781 97.0182 490.781 97.2334 490.781 97.0182C490.975 95.6713 491.262 94.3396 491.641 93.0329C491.888 92.1481 492.151 91.2714 492.437 90.3946C492.549 90.0598 492.66 89.7251 492.78 89.3903C492.78 89.2708 492.867 89.1432 492.915 89.0237C492.915 89.0237 492.859 89.1352 492.955 88.9519C493.592 87.7085 491.721 86.6086 491.084 87.852H491.116Z" fill="#BC4073"/>
<path d="M469.859 199.209L469.317 198.922C469.169 198.842 469.058 198.708 469.007 198.547C468.956 198.386 468.971 198.212 469.047 198.061C469.126 197.912 469.261 197.801 469.422 197.75C469.582 197.7 469.756 197.714 469.907 197.79L470.448 198.077C470.522 198.116 470.588 198.169 470.642 198.233C470.696 198.297 470.736 198.371 470.762 198.451C470.787 198.531 470.796 198.615 470.789 198.699C470.781 198.782 470.757 198.864 470.719 198.938C470.639 199.087 470.505 199.198 470.344 199.249C470.183 199.299 470.009 199.285 469.859 199.209Z" fill="#514677"/>
<path d="M468.967 198.34V195.447C468.967 195.278 469.034 195.115 469.154 194.996C469.273 194.876 469.435 194.809 469.604 194.809C469.773 194.809 469.935 194.876 470.054 194.996C470.174 195.115 470.241 195.278 470.241 195.447V198.34C470.241 198.509 470.174 198.671 470.054 198.791C469.935 198.911 469.773 198.978 469.604 198.978C469.435 198.978 469.273 198.911 469.154 198.791C469.034 198.671 468.967 198.509 468.967 198.34Z" fill="#423A66"/>
<path d="M471.563 187.46C470.854 186.097 468.999 184.615 468.004 184.902L465.361 189.134L464.971 189.262C463.53 191.111 456.165 198.986 454.167 201.815C453.156 203.25 455.512 204.127 455.512 204.127C460.512 205.059 465.488 202.796 465.488 202.796C467.622 201.329 466.228 199.336 468.41 196.148C468.784 195.606 469.652 195.056 469.795 195.566L469.604 198.978L470.79 198.747C470.79 198.747 471.507 193.869 472.152 190.593C472.299 190.06 472.323 189.501 472.221 188.958C472.119 188.415 471.894 187.902 471.563 187.46Z" fill="#2C4482"/>
<path d="M467.335 184.543L465.122 186.376C465.122 186.376 459.549 195.088 458.514 196.834C457.296 198.85 464.596 202.333 469.66 190.457C473.266 184.16 467.335 184.543 467.335 184.543Z" fill="#FFC2B0"/>
<path d="M481.459 75.5295C480.583 78.0083 480.352 80.9893 481.96 83.0617C482.255 83.4442 482.605 83.779 482.931 84.1297C483.801 85.0467 484.554 86.0665 485.177 87.1665C485.267 87.3635 485.4 87.5377 485.567 87.6766C485.786 87.7973 486.041 87.8387 486.287 87.7937C486.534 87.7487 486.757 87.6201 486.92 87.4295C487.227 87.0377 487.494 86.6157 487.716 86.1702C488.512 84.9268 505.55 94.8502 506.386 93.6147C507.524 91.9489 503.337 73.1144 502.891 71.1456C502.333 68.6349 489.906 71.9427 487.867 70.3486C487.447 70.0706 487.045 69.7644 486.665 69.432C486.148 68.9139 485.678 67.8378 484.826 68.1885C484.134 68.4914 483.903 69.7348 483.664 70.3326C482.987 72.118 482.088 73.76 481.459 75.5295Z" fill="#2C4482"/>
<path d="M493.998 92.5386L490.566 79.2915L498.862 81.9218L501.649 92.7379C502.246 94.4994 496.474 99.3056 493.998 92.5386Z" fill="#FFC2B0"/>
<path d="M493.17 89.0554C493.17 89.0554 496.888 87.1504 496.904 87.1105C496.92 87.0707 495.63 89.8205 493.783 90.8806L493.17 89.0554Z" fill="#EA8A6C"/>
<path d="M490.757 64.214L492.993 64.1394C494.652 64.084 496.264 64.6906 497.476 65.8256C498.688 66.9607 499.4 68.5313 499.456 70.192L499.835 81.5677C499.89 83.2283 499.284 84.8429 498.15 86.0563C497.016 87.2697 495.448 87.9825 493.789 88.0379L491.553 88.1125C489.892 88.168 488.277 87.5606 487.064 86.4241C485.85 85.2876 485.137 83.715 485.082 82.0522L484.704 70.6925C484.648 69.0297 485.255 67.4131 486.39 66.1981C487.525 64.9832 489.096 64.2695 490.757 64.214Z" fill="#FFC2B0"/>
<path d="M495.415 73.4969C492.82 70.3087 488.019 74.1107 485.423 73.1064C482.613 72.0224 483.568 69.1211 485.471 66.7937C486.774 65.2443 488.492 64.0995 490.423 63.4938C497.7 60.744 505.008 63.8206 505.279 72.0702C505.279 72.0702 506.234 83.2768 499.658 84.9427L498.95 83.3486C498.95 83.3486 502.731 79.172 498.703 76.741C497.764 76.175 497.724 76.1511 497.803 74.7882C497.883 73.4252 496.291 74.573 495.415 73.4969Z" fill="#2C4482"/>
<path d="M501.203 83.5237C500.048 84.4882 498.719 84.1534 498.249 82.7825C498.037 82.0341 498.039 81.241 498.256 80.494C498.473 79.7469 498.895 79.076 499.475 78.5581C500.638 77.5936 501.959 77.9284 502.429 79.2993C502.64 80.0478 502.637 80.8405 502.421 81.5874C502.204 82.3343 501.782 83.0052 501.203 83.5237Z" fill="#FFC2B0"/>
<path d="M483.656 79.6341C483.656 79.6341 483.767 75.848 492.819 70.8664C501.872 65.8848 493.226 70.6353 493.226 70.6353L484.253 68.6028C484.253 68.6028 480.702 72.6678 483.656 79.6341Z" fill="#2C4482"/>
<path d="M514.554 105.889C515.207 110.96 515.421 116.077 515.191 121.185C515.096 125.967 516.465 131.491 515.096 136.162C514.204 139.182 511.752 140.521 508.798 140.872C503.75 141.478 498.647 141.231 493.592 141.876C489.675 142.371 489.714 136.217 493.592 135.723C497.947 135.165 502.262 135.07 506.64 134.878C508.878 134.775 509.14 135.229 509.355 133.38C509.857 128.964 508.909 124.349 509.085 119.902C509.329 115.77 509.174 111.625 508.623 107.523C508.05 103.65 513.973 101.944 514.554 105.889Z" fill="#FFC2B0"/>
<path d="M513.607 100.964C517.357 110.64 516.417 119.846 516.17 129.976C516.035 135.245 507.843 135.269 507.97 129.976C508.201 120.563 509.188 112.138 505.701 103.14C503.79 98.2137 511.712 96.0776 513.607 100.964Z" fill="white"/>
<path d="M476.355 137.995C475.427 138.142 474.477 137.915 473.715 137.364C472.953 136.813 472.439 135.982 472.287 135.054L471.077 127.529C470.93 126.602 471.155 125.654 471.704 124.892C472.253 124.13 473.081 123.617 474.007 123.464C474.933 123.317 475.88 123.543 476.641 124.093C477.402 124.642 477.914 125.471 478.067 126.398L479.277 133.906C479.429 134.836 479.207 135.788 478.659 136.554C478.112 137.321 477.283 137.839 476.355 137.995Z" fill="#FFC2B0"/>
<path d="M495.797 142.944V142.259L494.913 142.602L494.722 142.163L472.574 129.355C472.407 129.28 472.225 129.245 472.043 129.254C471.86 129.262 471.682 129.313 471.523 129.402L461.969 134.91V134.759L460.202 135.468V136.201C460.233 136.283 460.293 136.35 460.369 136.393L483.457 149.719C483.622 149.794 483.803 149.829 483.984 149.82C484.165 149.812 484.342 149.761 484.5 149.672L495.55 143.295C495.619 143.265 495.678 143.218 495.723 143.158C495.768 143.098 495.796 143.027 495.805 142.952L495.797 142.944Z" fill="#A8C4E5"/>
<path d="M483.433 148.986L460.345 135.659C460.082 135.508 460.114 135.237 460.424 135.054L471.475 128.677C471.634 128.591 471.811 128.542 471.992 128.535C472.173 128.528 472.353 128.563 472.518 128.637L495.606 141.964C495.869 142.116 495.837 142.387 495.526 142.57L484.484 148.946C484.324 149.035 484.146 149.084 483.963 149.091C483.781 149.098 483.599 149.062 483.433 148.986Z" fill="#E1EAF4"/>
<path d="M485.009 140.402L479.436 137.214C479.373 137.174 479.381 137.11 479.436 137.062L482.111 135.516C482.15 135.496 482.192 135.486 482.235 135.486C482.278 135.486 482.32 135.496 482.358 135.516L487.931 138.744C487.995 138.744 487.987 138.848 487.931 138.887L485.256 140.434C485.215 140.447 485.172 140.452 485.129 140.446C485.086 140.44 485.045 140.425 485.009 140.402Z" fill="#A8C4E5"/>
<path d="M482.852 133.994C482.787 133.671 482.66 133.364 482.477 133.09C482.294 132.817 482.059 132.582 481.785 132.4L458.896 119.36C458.823 119.307 458.739 119.272 458.651 119.258C458.562 119.244 458.472 119.252 458.386 119.28C458.34 119.303 458.299 119.335 458.267 119.376L457.471 120.173L458.155 120.109L460.337 134.193C460.398 134.516 460.523 134.823 460.705 135.097C460.887 135.371 461.122 135.606 461.396 135.787L483.043 148.102L483.735 148.899L483.823 149.09C484.261 149.186 485.312 148.444 485.312 148.444L482.852 133.994Z" fill="white"/>
<path d="M483.513 149.672L460.624 136.648C460.35 136.466 460.115 136.232 459.933 135.958C459.751 135.684 459.626 135.377 459.565 135.054L457.359 120.818C457.272 120.212 457.59 119.941 458.084 120.228L480.973 133.252C481.247 133.435 481.482 133.669 481.665 133.943C481.848 134.216 481.975 134.523 482.04 134.846L484.237 149.05C484.333 149.688 484.006 149.951 483.513 149.672Z" fill="#2C4482"/>
<path d="M484.985 141.582C484.693 140.687 484.766 139.714 485.188 138.873C485.61 138.032 486.347 137.393 487.238 137.094L493.647 134.99C494.54 134.7 495.51 134.776 496.347 135.2C497.184 135.624 497.819 136.362 498.114 137.254C498.403 138.148 498.328 139.12 497.905 139.959C497.481 140.799 496.744 141.436 495.853 141.733L489.444 143.837C488.554 144.121 487.588 144.043 486.754 143.621C485.921 143.199 485.285 142.467 484.985 141.582Z" fill="#FFC2B0"/>
<path d="M471.316 135.883C471.435 136.68 470.75 136.815 469.787 136.265C468.849 135.755 468.149 134.896 467.837 133.874C467.717 133.117 468.402 132.949 469.365 133.491C470.301 134.004 471.001 134.862 471.316 135.883Z" fill="white"/>
<path d="M495.033 73.0902C495.033 73.0902 502.31 82.6549 501.657 88.864C501.123 94.021 495.518 97.3049 494.491 105.1C494.42 105.462 494.477 105.838 494.652 106.163C494.826 106.488 495.108 106.742 495.449 106.882C495.79 107.022 496.169 107.04 496.522 106.931C496.874 106.823 497.178 106.595 497.381 106.288C498.763 104.453 500.417 102.84 502.286 101.505C507.142 98.1816 508.026 94.6347 507.572 92.0443C507.118 89.4538 505.088 70.5237 505.088 70.5237L493.942 69.4158L495.033 73.0902Z" fill="#2C4482"/>
</g>
<defs>
<clipPath id="clip0_14_1424">
<rect width="685" height="529" fill="white"/>
</clipPath>
</defs>
</svg>
