<svg width="45" height="46" xmlns="http://www.w3.org/2000/svg" xmlns:xlink="http://www.w3.org/1999/xlink" xml:space="preserve" overflow="hidden"><g transform="translate(-516 -204)"><g><path d="M22.5 0 0 0 0 22.5 0 45 22.5 45 45 45 45 22.5 45 0 22.5 0ZM25.7871 24.4863 22.8516 24.4863 19.916 24.4863 19.916 32.8008 19.916 41.1328 17.8418 41.1328 15.8027 41.1328 15.8027 32.8184 15.8027 24.5039 12.8672 24.5039 9.93164 24.5039 9.94922 22.6582 9.9668 20.8301 17.8242 20.8125C22.1484 20.8125 25.7168 20.8125 25.7344 20.8477 25.7695 20.8652 25.7871 21.709 25.7871 22.7109L25.7871 24.4863ZM41.0977 37.7051C40.377 39.5684 38.6191 40.8516 36.123 41.2734 35.3496 41.4141 33.5215 41.3965 32.6953 41.2383 30.8848 40.9219 29.1797 40.0254 28.125 38.8477 27.7031 38.3906 26.9121 37.1953 26.9473 37.1074 26.9648 37.0723 27.1582 36.9668 27.3691 36.8438 27.5625 36.7207 28.3184 36.2988 29.0391 35.877L30.3398 35.1211 30.6035 35.5254C30.9902 36.1055 31.8164 36.8965 32.3086 37.1602 33.75 37.916 35.7188 37.8105 36.6855 36.9316 37.1074 36.5449 37.2656 36.1582 37.2656 35.5781 37.2656 35.0508 37.1953 34.8223 36.9316 34.4355 36.5801 33.9434 35.8594 33.5215 33.8379 32.6426 31.5176 31.6406 30.5156 31.0254 29.6016 30.041 29.0742 29.4609 28.5645 28.5469 28.3711 27.791 28.1953 27.1582 28.1602 25.5586 28.3008 24.9258 28.7754 22.6758 30.4805 21.1113 32.9238 20.6543 33.7148 20.4961 35.5605 20.5664 36.334 20.7598 37.4766 21.041 38.3555 21.5508 39.1465 22.377 39.5684 22.8164 40.1836 23.625 40.2188 23.8184 40.2363 23.8711 38.2676 25.1895 37.0898 25.9277 37.0547 25.9629 36.8789 25.7695 36.6855 25.4883 36.1055 24.6445 35.5078 24.2754 34.5762 24.2227 33.2051 24.1348 32.3262 24.8379 32.3438 26.0332 32.3438 26.3848 32.3965 26.5957 32.5371 26.877 32.8359 27.4922 33.3984 27.8613 35.1387 28.6348 38.3555 30.0234 39.7441 30.9375 40.5879 32.2383 41.5371 33.6797 41.748 35.9824 41.0977 37.7051Z" fill="#4F81BD" fill-rule="nonzero" fill-opacity="1" transform="matrix(1 0 0 1.02222 516 204)"/></g></g></svg>