<svg xmlns="http://www.w3.org/2000/svg" preserveAspectRatio="xMidYMid" viewBox="0 0 256 234">
  <path fill="#FCC72B" d="m192.12 70.8-61.2 88.5a5.27 5.27 0 0 1-9.58-3.22l2.45-48.85-39.55-8.39a5.26 5.26 0 0 1-4.12-5.7c.1-.85.4-1.67.9-2.38l61.2-88.49a5.26 5.26 0 0 1 9.58 3.22l-2.45 48.85 39.54 8.39a5.26 5.26 0 0 1 4.12 5.7c-.1.85-.4 1.67-.9 2.38Z"/>
  <path fill="#729B1B" d="M128.02 233.54a12.36 12.36 0 0 1-8.76-3.63l-57.83-57.83a12.39 12.39 0 0 1 17.53-17.52l49.06 49.06 106.9-106.89a12.4 12.4 0 0 1 17.52 17.53L136.79 229.9a12.34 12.34 0 0 1-8.77 3.63Z"/>
  <path fill="#729B1B" fill-opacity=".5" d="M127.97 233.54a12.36 12.36 0 0 0 8.77-3.63l57.83-57.83a12.39 12.39 0 0 0-17.53-17.52l-49.07 49.06L21.08 96.73a12.4 12.4 0 0 0-17.52 17.53L119.2 229.9a12.35 12.35 0 0 0 8.76 3.63Z"/>
</svg>

